{
.appVersion = "3342";
.formatVersion = 3;
DisplayStrings = (

glyphs = (
{
glyphname = A;
lastChange = "2025-02-16 16:06:29 +0000";
layers = (
{
anchors = (
{
name = bottom;
pos = (268,0);
},
{
name = ogonek;
pos = (549,10);
},
{
name = top;
pos = (412,635);
}
);
layerId = m003;
shapes = (
{
closed = 1;
nodes = (
(598,0,l),
(604,28,l),
(584,28,l),
(556,28,o),
(527,72,o),
(523,134,cs),
(484,679,l),
(484,719,l),
(472,728,l),
(451,716,o),
(420,704,o),
(384,700,c),
(376,666,l),
(401,659,l),
(421,388,o),
(437,152,o),
(440,89,cs),
(441,52,o),
(420,26,o),
(391,26,cs),
(338,26,l),
(331,-2,l)
);
},
{
closed = 1;
nodes = (
(204,1,l),
(210,28,l),
(204,28,o),
(208,29,o),
(193,29,cs),
(148,29,o),
(129,59,o),
(146,101,c),
(414,660,l),
(383,686,l),
(277,480,o),
(160,240,o),
(101,105,cs),
(81,60,o),
(42,29,o),
(5,29,cs),
(-44,29,l),
(-50,1,l)
);
},
{
closed = 1;
nodes = (
(481,288,l),
(492,338,l),
(227,338,l),
(216,288,l)
);
}
);
width = 678;
},
{
associatedMasterId = m003;
layerId = "DE149DD7-0C59-43BC-A8DB-B098D9C903EC";
name = "Groote Garmond Romyn";
shapes = (
{
closed = 1;
nodes = (
(769,0,l),
(769,38,l),
(763,38,l),
(730,38,o),
(684,82,o),
(662,144,cs),
(468,679,l),
(458,719,l),
(447,728,l),
(426,716,o),
(381,704,o),
(339,700,c),
(339,666,l),
(371,659,l),
(467,388,o),
(550,162,o),
(571,99,cs),
(582,62,o),
(565,36,o),
(531,36,cs),
(468,36,l),
(468,-2,l)
);
},
{
closed = 1;
nodes = (
(317,1,l),
(317,38,l),
(310,38,o),
(315,39,o),
(297,39,cs),
(244,39,o),
(213,69,o),
(222,111,c),
(385,660,l),
(342,686,l),
(273,480,o),
(201,250,o),
(168,115,cs),
(157,70,o),
(119,39,o),
(76,39,cs),
(18,39,l),
(18,1,l)
);
},
{
closed = 1;
nodes = (
(565,288,l),
(565,333,l),
(253,333,l),
(253,288,l)
);
}
);
width = 787;
}
);
unicode = 65;
},
{
glyphname = B;
lastChange = "2025-02-16 16:06:29 +0000";
layers = (
{
layerId = m003;
shapes = (
{
closed = 1;
nodes = (
(4,0,o),
(35,2,o),
(78,2,cs),
(122,2,o),
(228,0,o),
(272,0,cs),
(388,0,o),
(488,78,o),
(513,188,cs),
(539,299,o),
(459,377,o),
(322,377,cs),
(192,377,l),
(182,336,l),
(225,336,o),
(276,336,o),
(312,336,cs),
(385,336,o),
(423,273,o),
(402,185,cs),
(381,95,o),
(319,31,o),
(253,31,cs),
(190,31,o),
(149,57,o),
(158,94,cs),
(290,669,l),
(315,669,o),
(354,669,o),
(381,669,cs),
(443,669,o),
(474,609,o),
(454,523,cs),
(434,437,o),
(363,377,o),
(282,377,c),
(275,344,l),
(414,344,o),
(532,426,o),
(558,541,cs),
(579,629,o),
(510,694,o),
(393,699,cs),
(396,698,o),
(337,698,o),
(252,698,cs),
(228,698,o),
(138,700,o),
(123,700,c),
(117,672,l),
(124,672,o),
(130,672,o),
(139,672,cs),
(178,672,o),
(200,647,o),
(192,611,cs),
(181,562,o),
(75,104,o),
(67,71,cs),
(62,46,o),
(36,28,o),
(6,28,cs),
(-25,28,l),
(-31,0,l)
);
}
);
width = 564;
},
{
associatedMasterId = m003;
layerId = "ED94B8C8-6114-4A8B-8E63-C8FFDB935BA0";
name = "Groote Garmond Romyn";
shapes = (
{
closed = 1;
nodes = (
(72,0,o),
(108,2,o),
(158,2,cs),
(210,2,o),
(335,0,o),
(387,0,cs),
(523,0,o),
(620,78,o),
(620,188,cs),
(620,299,o),
(505,382,o),
(343,382,cs),
(190,382,l),
(190,331,l),
(241,331,o),
(300,331,o),
(343,331,cs),
(429,331,o),
(490,273,o),
(490,185,cs),
(490,95,o),
(434,41,o),
(356,41,cs),
(282,41,o),
(227,67,o),
(227,104,cs),
(227,659,l),
(256,659,o),
(302,659,o),
(333,659,cs),
(407,659,o),
(459,609,o),
(459,523,cs),
(459,437,o),
(392,382,o),
(297,382,c),
(297,339,l),
(461,339,o),
(577,426,o),
(577,541,cs),
(577,629,o),
(478,694,o),
(339,699,cs),
(343,698,o),
(274,698,o),
(174,698,cs),
(146,698,o),
(39,700,o),
(22,700,c),
(22,662,l),
(31,662,o),
(37,662,o),
(48,662,cs),
(94,662,o),
(127,647,o),
(127,611,cs),
(127,562,o),
(127,104,o),
(127,71,cs),
(127,46,o),
(102,38,o),
(67,38,cs),
(30,38,l),
(30,0,l)
);
}
);
width = 675;
}
);
metricLeft = H;
metricRight = O;
unicode = 66;
},
{
glyphname = C;
lastChange = "2025-02-16 16:06:29 +0000";
layers = (
{
layerId = m003;
shapes = (
{
closed = 1;
nodes = (
(444,-8,o),
(553,44,o),
(620,118,c),
(653,249,l),
(634,251,l),
(593,124,o),
(486,34,o),
(374,34,cs),
(233,34,o),
(162,192,o),
(213,415,cs),
(250,574,o),
(367,687,o),
(483,687,cs),
(591,687,o),
(667,624,o),
(666,536,c),
(687,536,l),
(718,707,l),
(695,707,l),
(686,689,o),
(674,677,o),
(666,677,c),
(634,705,o),
(555,725,o),
(491,725,cs),
(301,725,o),
(143,573,o),
(93,359,cs),
(44,144,o),
(154,-8,o),
(345,-8,cs)
);
}
);
width = 698;
},
{
associatedMasterId = m003;
layerId = "FA6D4EC4-0B5E-4426-9F98-9979CD939AB6";
name = "Groote Garmond Romyn";
shapes = (
{
closed = 1;
nodes = (
(565,-8,o),
(690,44,o),
(749,118,c),
(752,259,l),
(729,261,l),
(716,134,o),
(614,44,o),
(483,44,cs),
(317,44,o),
(190,192,o),
(190,415,cs),
(190,574,o),
(297,677,o),
(433,677,cs),
(560,677,o),
(667,614,o),
(690,526,c),
(714,526,l),
(704,707,l),
(677,707,l),
(672,689,o),
(661,677,o),
(651,677,c),
(606,705,o),
(520,725,o),
(444,725,cs),
(221,725,o),
(64,573,o),
(64,359,cs),
(64,144,o),
(223,-8,o),
(448,-8,cs)
);
}
);
width = 816;
}
);
metricLeft = O;
metricRight = O;
unicode = 67;
},
{
glyphname = D;
lastChange = "2025-02-16 16:06:29 +0000";
layers = (
{
layerId = m003;
shapes = (
{
closed = 1;
nodes = (
(-14,-1,o),
(52,0,o),
(90,0,cs),
(139,0,o),
(200,-3,o),
(257,-3,cs),
(447,-3,o),
(620,160,o),
(673,390,cs),
(715,573,o),
(622,702,o),
(447,702,cs),
(394,702,o),
(273,700,o),
(247,700,cs),
(222,700,o),
(178,702,o),
(166,702,cs),
(104,702,l),
(97,672,l),
(108,672,o),
(108,672,o),
(131,672,cs),
(175,672,o),
(198,636,o),
(186,586,cs),
(171,519,o),
(89,163,o),
(81,132,cs),
(67,71,o),
(21,27,o),
(-30,27,cs),
(-60,27,l),
(-67,-3,l)
);
},
{
closed = 1;
nodes = (
(197,32,o),
(150,63,o),
(161,107,cs),
(290,666,l),
(328,666,o),
(381,666,o),
(411,666,cs),
(533,666,o),
(600,546,o),
(559,368,cs),
(513,168,o),
(389,32,o),
(271,32,cs)
);
}
);
width = 670;
},
{
associatedMasterId = m003;
layerId = "24BAA199-E0B1-4DBF-8A28-0A8DD0AB8195";
name = "Groote Garmond Romyn";
shapes = (
{
closed = 1;
nodes = (
(51,-1,o),
(128,0,o),
(173,0,cs),
(231,0,o),
(303,-3,o),
(370,-3,cs),
(594,-3,o),
(753,160,o),
(753,390,cs),
(753,573,o),
(608,702,o),
(402,702,cs),
(340,702,o),
(198,700,o),
(168,700,cs),
(138,700,o),
(86,702,o),
(72,702,cs),
(-1,702,l),
(-1,662,l),
(12,662,o),
(12,662,o),
(39,662,cs),
(90,662,o),
(127,636,o),
(127,586,cs),
(127,519,o),
(127,163,o),
(127,132,cs),
(127,71,o),
(84,37,o),
(25,37,cs),
(-11,37,l),
(-11,-3,l)
);
},
{
closed = 1;
nodes = (
(290,42,o),
(227,63,o),
(227,107,cs),
(227,656,l),
(272,656,o),
(334,656,o),
(370,656,cs),
(513,656,o),
(625,546,o),
(625,368,cs),
(625,168,o),
(516,42,o),
(377,42,cs)
);
}
);
width = 817;
}
);
metricLeft = H;
metricRight = O;
unicode = 68;
},
{
glyphname = E;
lastChange = "2025-02-16 16:06:29 +0000";
layers = (
{
layerId = m003;
shapes = (
{
closed = 1;
nodes = (
(426,-1,l),
(526,143,l),
(508,158,l),
(452,82,o),
(386,34,o),
(348,34,cs),
(331,34,o),
(205,34,o),
(183,34,cs),
(159,34,o),
(149,56,o),
(156,88,cs),
(183,202,o),
(274,599,o),
(279,620,cs),
(285,646,o),
(313,665,o),
(349,665,cs),
(366,665,o),
(455,665,o),
(466,665,cs),
(518,665,o),
(546,625,o),
(532,561,c),
(555,561,l),
(587,700,l),
(516,700,o),
(391,700,o),
(374,700,cs),
(357,700,o),
(276,697,o),
(264,697,cs),
(251,697,o),
(169,700,o),
(150,700,c),
(142,667,l),
(180,667,o),
(199,643,o),
(192,609,cs),
(186,585,o),
(93,181,o),
(83,137,cs),
(68,76,o),
(42,33,o),
(15,33,cs),
(-15,33,l),
(-22,0,l),
(4,0,o),
(56,0,o),
(93,0,cs),
(131,0,o),
(185,-1,o),
(216,-1,cs)
);
},
{
closed = 1;
nodes = (
(427,260,l),
(439,327,o),
(455,395,o),
(474,462,c),
(450,462,l),
(436,403,o),
(409,374,o),
(376,374,cs),
(198,374,l),
(191,344,l),
(244,344,o),
(348,344,o),
(369,344,cs),
(403,344,o),
(412,295,o),
(404,260,c)
);
}
);
width = 583;
},
{
associatedMasterId = m003;
layerId = "34B9DF5E-0FDC-4ECD-89E3-7871CBFD0CDD";
name = "Groote Garmond Romyn";
shapes = (
{
closed = 1;
nodes = (
(568,-1,l),
(647,143,l),
(612,158,l),
(566,82,o),
(512,44,o),
(467,44,cs),
(447,44,o),
(299,44,o),
(273,44,cs),
(245,44,o),
(227,66,o),
(227,88,cs),
(227,202,o),
(227,589,o),
(227,610,cs),
(227,636,o),
(255,655,o),
(297,655,cs),
(317,655,o),
(422,655,o),
(435,655,cs),
(496,655,o),
(530,625,o),
(530,561,c),
(568,561,l),
(568,700,l),
(484,700,o),
(337,700,o),
(317,700,cs),
(297,700,o),
(203,697,o),
(188,697,cs),
(173,697,o),
(76,700,o),
(53,700,c),
(53,657,l),
(98,657,o),
(127,633,o),
(127,599,cs),
(127,575,o),
(127,181,o),
(127,137,cs),
(127,76,o),
(107,43,o),
(76,43,cs),
(41,43,l),
(41,0,l),
(72,0,o),
(133,0,o),
(177,0,cs),
(221,0,o),
(285,-1,o),
(322,-1,cs)
);
},
{
closed = 1;
nodes = (
(504,260,l),
(500,327,o),
(500,395,o),
(504,462,c),
(471,462,l),
(471,403,o),
(447,379,o),
(408,379,cs),
(199,379,l),
(198,339,l),
(261,339,o),
(383,339,o),
(408,339,cs),
(448,339,o),
(472,295,o),
(472,260,c)
);
}
);
width = 692;
}
);
metricLeft = H;
metricRight = H;
unicode = 69;
},
{
glyphname = F;
lastChange = "2025-02-16 16:06:29 +0000";
layers = (
{
layerId = m003;
shapes = (
{
closed = 1;
nodes = (
(221,27,l),
(203,27,o),
(188,27,o),
(181,27,cs),
(157,27,o),
(147,49,o),
(155,81,cs),
(181,195,o),
(274,599,o),
(279,620,cs),
(285,646,o),
(313,665,o),
(349,665,cs),
(366,665,o),
(455,665,o),
(466,665,cs),
(518,665,o),
(538,625,o),
(532,561,c),
(555,561,l),
(579,700,l),
(508,700,o),
(391,700,o),
(374,700,cs),
(357,700,o),
(276,697,o),
(264,697,cs),
(251,697,o),
(169,700,o),
(150,700,c),
(142,667,l),
(180,667,o),
(199,643,o),
(192,609,cs),
(186,585,o),
(93,181,o),
(83,137,cs),
(67,69,o),
(40,26,o),
(14,26,cs),
(-16,26,l),
(-22,0,l),
(4,0,o),
(56,0,o),
(93,0,cs),
(130,0,o),
(183,-1,o),
(215,-1,c)
);
},
{
closed = 1;
nodes = (
(406,240,l),
(418,307,o),
(443,415,o),
(461,482,c),
(438,482,l),
(424,423,o),
(392,374,o),
(359,374,cs),
(198,374,l),
(191,344,l),
(244,344,o),
(331,344,o),
(352,344,cs),
(386,344,o),
(391,275,o),
(383,240,c)
);
}
);
width = 464;
},
{
associatedMasterId = m003;
layerId = "1A9C66C1-D8F2-4BA7-8588-3ABD404EDBCA";
name = "Groote Garmond Romyn";
shapes = (
{
closed = 1;
nodes = (
(320,37,l),
(298,37,o),
(281,37,o),
(273,37,cs),
(245,37,o),
(227,49,o),
(227,81,cs),
(227,195,o),
(227,589,o),
(227,610,cs),
(227,636,o),
(255,655,o),
(297,655,cs),
(317,655,o),
(422,655,o),
(435,655,cs),
(496,655,o),
(520,625,o),
(530,561,c),
(568,561,l),
(558,700,l),
(474,700,o),
(337,700,o),
(317,700,cs),
(297,700,o),
(203,697,o),
(188,697,cs),
(173,697,o),
(76,700,o),
(53,700,c),
(53,657,l),
(98,657,o),
(127,633,o),
(127,599,cs),
(127,575,o),
(127,181,o),
(127,137,cs),
(127,69,o),
(107,36,o),
(76,36,cs),
(41,36,l),
(41,0,l),
(72,0,o),
(133,0,o),
(177,0,cs),
(220,0,o),
(283,-1,o),
(320,-1,c)
);
},
{
closed = 1;
nodes = (
(484,240,l),
(480,307,o),
(480,415,o),
(484,482,c),
(451,482,l),
(451,423,o),
(427,379,o),
(388,379,cs),
(199,379,l),
(198,339,l),
(261,339,o),
(363,339,o),
(388,339,cs),
(428,339,o),
(452,275,o),
(452,240,c)
);
}
);
width = 586;
}
);
metricLeft = H;
metricRight = H;
unicode = 70;
},
{
glyphname = G;
lastChange = "2025-02-16 16:06:29 +0000";
layers = (
{
layerId = m003;
shapes = (
{
closed = 1;
nodes = (
(420,-20,o),
(525,13,o),
(606,59,c),
(609,73,l),
(601,79,o),
(597,89,o),
(598,96,cs),
(601,109,o),
(622,199,o),
(627,222,cs),
(634,252,o),
(656,274,o),
(679,274,cs),
(699,274,l),
(707,309,l),
(439,309,l),
(431,273,l),
(451,273,o),
(511,273,o),
(516,273,cs),
(537,273,o),
(544,234,o),
(531,180,cs),
(508,80,o),
(436,10,o),
(369,10,cs),
(236,10,o),
(158,150,o),
(203,347,cs),
(248,540,o),
(382,676,o),
(528,676,cs),
(620,676,o),
(685,606,o),
(686,507,c),
(703,507,l),
(747,694,l),
(689,694,o),
(599,712,o),
(521,712,cs),
(317,712,o),
(138,561,o),
(89,348,cs),
(39,132,o),
(149,-20,o),
(354,-20,cs)
);
}
);
width = 715;
},
{
associatedMasterId = m003;
layerId = "1B3C6BD8-3EAF-43AC-BA9B-E6B8FDABBF4A";
name = "Groote Garmond Romyn";
shapes = (
{
closed = 1;
nodes = (
(554,-20,o),
(668,13,o),
(751,59,c),
(751,73,l),
(740,79,o),
(732,89,o),
(732,96,cs),
(732,109,o),
(732,199,o),
(732,222,cs),
(732,252,o),
(751,274,o),
(778,274,cs),
(802,274,l),
(802,319,l),
(487,319,l),
(487,273,l),
(510,273,o),
(581,273,o),
(587,273,cs),
(612,273,o),
(630,234,o),
(630,180,cs),
(630,80,o),
(564,20,o),
(485,20,cs),
(329,20,o),
(199,150,o),
(199,347,cs),
(199,540,o),
(320,666,o),
(492,666,cs),
(600,666,o),
(695,596,o),
(723,497,c),
(744,497,l),
(744,694,l),
(676,694,o),
(566,712,o),
(474,712,cs),
(234,712,o),
(64,561,o),
(64,348,cs),
(64,132,o),
(235,-20,o),
(476,-20,cs)
);
}
);
width = 859;
}
);
metricLeft = O;
metricRight = O;
unicode = 71;
},
{
glyphname = H;
lastChange = "2025-02-16 16:06:29 +0000";
layers = (
{
layerId = m003;
shapes = (
{
closed = 1;
nodes = (
(601,345,l),
(609,380,l),
(215,380,l),
(207,345,l)
);
},
{
closed = 1;
nodes = (
(44,1,o),
(127,1,o),
(209,-4,c),
(219,26,l),
(213,26,o),
(192,26,o),
(180,29,cs),
(162,33,o),
(154,61,o),
(165,108,cs),
(172,138,o),
(279,591,o),
(285,612,cs),
(295,647,o),
(314,672,o),
(338,672,cs),
(355,672,o),
(371,672,o),
(388,671,c),
(398,705,l),
(312,701,o),
(225,699,o),
(140,704,c),
(130,674,l),
(137,674,o),
(153,674,o),
(161,674,cs),
(195,674,o),
(208,662,o),
(200,629,cs),
(192,595,o),
(89,164,o),
(81,132,cs),
(67,71,o),
(34,28,o),
(-1,28,cs),
(-28,28,l),
(-38,-4,l)
);
},
{
closed = 1;
nodes = (
(474,1,o),
(557,1,o),
(639,-4,c),
(649,26,l),
(643,26,o),
(622,26,o),
(610,29,cs),
(592,33,o),
(584,61,o),
(595,108,cs),
(602,138,o),
(709,591,o),
(715,612,cs),
(725,647,o),
(744,672,o),
(768,672,cs),
(785,672,o),
(801,672,o),
(818,671,c),
(828,705,l),
(742,701,o),
(655,699,o),
(570,704,c),
(560,674,l),
(567,674,o),
(583,674,o),
(591,674,cs),
(625,674,o),
(638,662,o),
(630,629,cs),
(622,595,o),
(519,164,o),
(511,132,cs),
(497,71,o),
(464,28,o),
(429,28,cs),
(402,28,l),
(392,-4,l)
);
}
);
width = 710;
},
{
associatedMasterId = m003;
layerId = "19A71292-6EDC-4E59-9C2E-4AD0D6A240A6";
name = "Groote Garmond Romyn";
shapes = (
{
closed = 1;
nodes = (
(851,0,l),
(851,38,l),
(845,38,o),
(840,38,o),
(832,38,cs),
(783,38,o),
(735,73,o),
(735,112,cs),
(735,137,o),
(735,581,o),
(735,605,cs),
(735,634,o),
(769,662,o),
(798,662,cs),
(826,662,l),
(826,700,l),
(521,700,l),
(521,662,l),
(532,662,o),
(541,662,o),
(554,662,cs),
(594,662,o),
(635,642,o),
(635,624,cs),
(635,601,o),
(635,146,o),
(635,125,cs),
(635,78,o),
(595,38,o),
(557,38,cs),
(517,38,l),
(517,0,l)
);
},
{
closed = 1;
nodes = (
(348,0,l),
(348,38,l),
(341,38,o),
(341,38,o),
(327,38,cs),
(276,38,o),
(227,71,o),
(227,108,cs),
(227,138,o),
(227,591,o),
(227,612,cs),
(227,637,o),
(255,662,o),
(277,662,cs),
(327,662,l),
(327,700,l),
(38,700,l),
(38,662,l),
(46,662,o),
(53,662,o),
(63,662,cs),
(91,662,o),
(127,659,o),
(127,639,cs),
(127,585,o),
(127,164,o),
(127,132,cs),
(127,81,o),
(90,38,o),
(64,38,cs),
(25,38,l),
(25,0,l)
);
},
{
closed = 1;
nodes = (
(680,345,l),
(680,390,l),
(217,390,l),
(217,345,l)
);
}
);
width = 862;
}
);
unicode = 72;
},
{
color = 4;
glyphname = I;
lastChange = "2025-02-16 16:06:29 +0000";
layers = (
{
background = {
shapes = (
{
closed = 1;
nodes = (
(189,671,o),
(219,668,o),
(228,657,qs),
(232,651,o),
(235,640,o),
(232,615,o),
(221,571,o),
(210,532,qs),
(103,159,ls),
(92,121,o),
(81,88,o),
(77,75,qs),
(66,46,o),
(30,29,o),
(-5,28,q),
(-14,-4,l),
(17,-2,o),
(79,0,o),
(110,0,qs),
(139,0,o),
(197,-2,o),
(230,-4,q),
(240,27,l),
(202,29,o),
(168,43,o),
(168,65,qs),
(168,79,o),
(177,117,o),
(182,134,qs),
(311,578,ls),
(319,606,o),
(333,644,o),
(353,665,o),
(384,674,o),
(408,674,q),
(416,706,l),
(388,704,o),
(332,702,o),
(303,702,qs),
(271,702,o),
(208,704,o),
(173,706,q),
(163,675,l)
);
}
);
};
layerId = m003;
shapes = (
{
closed = 1;
nodes = (
(44,1,o),
(127,1,o),
(209,-4,c),
(219,26,l),
(213,26,o),
(192,26,o),
(180,29,cs),
(162,33,o),
(154,61,o),
(165,108,cs),
(172,138,o),
(279,591,o),
(285,612,cs),
(295,647,o),
(314,672,o),
(338,672,cs),
(355,672,o),
(371,672,o),
(388,671,c),
(398,705,l),
(312,701,o),
(225,699,o),
(140,704,c),
(130,674,l),
(137,674,o),
(153,674,o),
(161,674,cs),
(195,674,o),
(208,662,o),
(200,629,cs),
(192,595,o),
(89,164,o),
(81,132,cs),
(67,71,o),
(34,28,o),
(-1,28,cs),
(-28,28,l),
(-38,-4,l)
);
}
);
width = 280;
},
{
associatedMasterId = m003;
layerId = "896C0740-5B96-4F45-AF40-B4185E07A668";
name = "Groote Garmond Romyn";
shapes = (
{
closed = 1;
nodes = (
(298,0,l),
(298,38,l),
(291,38,o),
(281,38,o),
(267,38,cs),
(245,38,o),
(227,61,o),
(227,108,cs),
(227,138,o),
(227,591,o),
(227,612,cs),
(227,637,o),
(249,662,o),
(277,662,cs),
(320,662,l),
(320,700,l),
(33,700,l),
(33,662,l),
(41,662,o),
(48,662,o),
(58,662,cs),
(97,662,o),
(127,652,o),
(127,639,cs),
(127,585,o),
(127,164,o),
(127,132,cs),
(127,71,o),
(95,38,o),
(54,38,cs),
(35,38,l),
(35,0,l)
);
}
);
width = 354;
}
);
metricLeft = H;
metricRight = H;
unicode = 73;
},
{
glyphname = J;
lastChange = "2025-02-16 16:06:29 +0000";
layers = (
{
layerId = m003;
shapes = (
{
closed = 1;
nodes = (
(-13,-373,o),
(68,-294,o),
(94,-183,cs),
(115,-92,o),
(268,570,o),
(277,611,cs),
(286,649,o),
(324,674,o),
(368,672,cs),
(393,671,l),
(400,700,l),
(137,700,l),
(130,671,l),
(138,671,o),
(144,672,o),
(153,672,cs),
(184,672,o),
(202,654,o),
(196,628,cs),
(187,591,o),
(1,-217,o),
(-8,-254,cs),
(-20,-306,o),
(-55,-342,o),
(-93,-342,cs),
(-135,-342,o),
(-160,-320,o),
(-152,-288,cs),
(-146,-262,o),
(-133,-256,o),
(-129,-239,cs),
(-126,-227,o),
(-139,-219,o),
(-159,-219,cs),
(-183,-219,o),
(-206,-249,o),
(-216,-292,cs),
(-227,-339,o),
(-181,-373,o),
(-104,-373,cs)
);
}
);
width = 262;
},
{
associatedMasterId = m003;
layerId = "26F76F9F-F375-4A75-B201-A38276D4A77C";
name = "Groote Garmond Romyn";
shapes = (
{
closed = 1;
nodes = (
(153,-373,o),
(227,-294,o),
(227,-183,cs),
(227,-92,o),
(227,570,o),
(227,611,cs),
(227,649,o),
(265,664,o),
(318,662,cs),
(347,661,l),
(347,700,l),
(38,700,l),
(38,661,l),
(47,661,o),
(54,662,o),
(65,662,cs),
(101,662,o),
(127,654,o),
(127,628,cs),
(127,591,o),
(127,-207,o),
(127,-244,cs),
(127,-296,o),
(95,-332,o),
(51,-332,cs),
(1,-332,o),
(-34,-310,o),
(-34,-278,cs),
(-34,-252,o),
(-20,-256,o),
(-20,-239,cs),
(-20,-227,o),
(-37,-219,o),
(-61,-219,cs),
(-89,-219,o),
(-108,-249,o),
(-108,-292,cs),
(-108,-339,o),
(-44,-373,o),
(46,-373,cs)
);
}
);
width = 336;
}
);
metricRight = H;
unicode = 74;
},
{
glyphname = K;
lastChange = "2025-02-16 16:06:29 +0000";
layers = (
{
layerId = m003;
shapes = (
{
closed = 1;
nodes = (
(571,0,l),
(578,28,l),
(572,28,ls),
(548,28,o),
(521,45,o),
(495,87,cs),
(304,398,l),
(391,477,o),
(483,568,o),
(503,589,cs),
(534,621,o),
(602,659,o),
(623,659,cs),
(663,659,l),
(671,696,l),
(446,696,l),
(438,660,l),
(462,660,ls),
(469,660,o),
(497,631,o),
(459,589,c),
(218,358,l),
(243,468,o),
(270,575,o),
(274,594,cs),
(285,640,o),
(310,672,o),
(332,672,cs),
(361,672,l),
(367,700,l),
(153,700,l),
(147,672,l),
(170,672,ls),
(190,672,o),
(202,655,o),
(196,630,cs),
(70,83,ls),
(63,51,o),
(42,28,o),
(24,28,cs),
(11,28,l),
(4,0,l),
(218,0,l),
(225,28,l),
(199,28,ls),
(166,28,o),
(149,52,o),
(157,87,cs),
(209,318,l),
(225,333,l),
(400,36,ls),
(412,15,o),
(429,0,o),
(443,0,cs)
);
}
);
width = 644;
},
{
associatedMasterId = m003;
layerId = "30713842-B3AB-4D22-9141-9F5D2967A003";
name = "3. Nov. 24, 11:35";
shapes = (
{
closed = 1;
nodes = (
(739,0,l),
(739,28,l),
(732,28,ls),
(704,28,o),
(669,57,o),
(627,99,cs),
(307,421,l),
(234,340,l),
(528,36,ls),
(548,15,o),
(572,0,o),
(588,0,cs)
);
},
{
closed = 1;
nodes = (
(324,0,l),
(324,28,l),
(293,28,ls),
(255,28,o),
(228,52,o),
(228,87,cs),
(228,111,o),
(226,229,o),
(226,345,cs),
(226,460,o),
(228,574,o),
(228,594,cs),
(228,640,o),
(249,672,o),
(275,672,cs),
(309,672,l),
(309,700,l),
(57,700,l),
(57,672,l),
(85,672,ls),
(108,672,o),
(127,655,o),
(127,630,cs),
(127,83,ls),
(127,51,o),
(109,28,o),
(88,28,cs),
(72,28,l),
(72,0,l)
);
},
{
closed = 1;
nodes = (
(297,391,o),
(471,557,o),
(499,589,cs),
(527,621,o),
(596,659,o),
(621,659,cs),
(668,659,l),
(668,696,l),
(403,696,l),
(403,660,l),
(431,660,ls),
(440,660,o),
(480,631,o),
(447,589,c),
(187,317,l),
(201,292,l)
);
}
);
width = 748;
},
{
associatedMasterId = m003;
layerId = "00A6F74D-5240-4CE8-99E5-816BEECF8EA3";
name = "Groote Garmond Romyn";
shapes = (
{
closed = 1;
nodes = (
(739,0,l),
(739,38,l),
(732,38,ls),
(704,38,o),
(670,58,o),
(627,99,cs),
(318,400,l),
(399,479,o),
(479,569,o),
(499,589,cs),
(531,622,o),
(578,662,o),
(621,662,cs),
(668,662,l),
(668,700,l),
(403,700,l),
(403,662,l),
(431,662,ls),
(477,662,o),
(482,631,o),
(446,589,c),
(225,358,l),
(225,468,o),
(228,575,o),
(228,594,cs),
(228,640,o),
(249,662,o),
(275,662,cs),
(309,662,l),
(309,700,l),
(57,700,l),
(57,662,l),
(85,662,ls),
(108,662,o),
(127,645,o),
(127,630,cs),
(127,83,ls),
(127,51,o),
(109,38,o),
(88,38,cs),
(72,38,l),
(72,0,l),
(324,0,l),
(324,38,l),
(293,38,ls),
(255,38,o),
(228,52,o),
(228,87,cs),
(226,308,l),
(241,323,l),
(523,36,ls),
(544,15,o),
(572,0,o),
(588,0,cs)
);
}
);
width = 748;
},
{
associatedMasterId = m003;
layerId = "A2A4E4AA-909C-4E8F-8D4E-3D4A3A6E95EC";
name = "Groote Garmond Romyn";
shapes = (
{
closed = 1;
nodes = (
(739,0,l),
(739,28,l),
(732,28,ls),
(704,28,o),
(669,57,o),
(627,99,cs),
(307,421,l),
(234,340,l),
(528,36,ls),
(548,15,o),
(572,0,o),
(588,0,cs)
);
},
{
closed = 1;
nodes = (
(324,0,l),
(324,28,l),
(293,28,ls),
(255,28,o),
(228,52,o),
(228,87,cs),
(228,111,o),
(226,229,o),
(226,345,cs),
(226,460,o),
(228,574,o),
(228,594,cs),
(228,640,o),
(249,672,o),
(275,672,cs),
(309,672,l),
(309,700,l),
(57,700,l),
(57,672,l),
(85,672,ls),
(108,672,o),
(127,655,o),
(127,630,cs),
(127,83,ls),
(127,51,o),
(109,28,o),
(88,28,cs),
(72,28,l),
(72,0,l)
);
},
{
closed = 1;
nodes = (
(297,391,o),
(471,557,o),
(499,589,cs),
(527,621,o),
(596,659,o),
(621,659,cs),
(668,659,l),
(668,696,l),
(403,696,l),
(403,660,l),
(431,660,ls),
(440,660,o),
(480,631,o),
(447,589,c),
(187,317,l),
(201,292,l)
);
}
);
width = 748;
}
);
metricLeft = H;
unicode = 75;
},
{
glyphname = L;
lastChange = "2025-02-16 16:06:30 +0000";
layers = (
{
layerId = m003;
shapes = (
{
closed = 1;
nodes = (
(457,0,l),
(552,162,l),
(527,169,l),
(483,91,o),
(416,35,o),
(365,35,cs),
(306,35,o),
(226,35,o),
(207,35,cs),
(173,35,o),
(153,74,o),
(166,130,cs),
(177,179,o),
(265,558,o),
(276,608,cs),
(285,645,o),
(336,672,o),
(395,672,cs),
(412,672,l),
(418,700,l),
(117,700,l),
(110,672,l),
(132,672,l),
(174,672,o),
(198,636,o),
(186,584,cs),
(174,533,o),
(89,166,o),
(80,125,cs),
(68,72,o),
(40,35,o),
(18,35,cs),
(3,35,o),
(-23,35,o),
(-35,35,c),
(-43,0,l)
);
}
);
width = 596;
},
{
associatedMasterId = m003;
layerId = "C071BEBF-29B3-49DA-9314-892BFF9B541C";
name = "Groote Garmond Romyn";
shapes = (
{
closed = 1;
nodes = (
(605,0,l),
(673,162,l),
(631,169,l),
(600,91,o),
(547,45,o),
(487,45,cs),
(418,45,o),
(324,45,o),
(301,45,cs),
(261,45,o),
(227,74,o),
(227,130,cs),
(227,179,o),
(227,558,o),
(227,608,cs),
(227,645,o),
(280,662,o),
(349,662,cs),
(369,662,l),
(369,700,l),
(14,700,l),
(14,662,l),
(40,662,l),
(89,662,o),
(127,636,o),
(127,584,cs),
(127,533,o),
(127,166,o),
(127,125,cs),
(127,72,o),
(105,45,o),
(79,45,cs),
(61,45,o),
(30,45,o),
(16,45,c),
(16,0,l)
);
}
);
width = 709;
}
);
metricLeft = H;
metricRight = n;
unicode = 76;
},
{
glyphname = M;
lastChange = "2025-02-16 16:06:30 +0000";
layers = (
{
layerId = m003;
shapes = (
{
closed = 1;
nodes = (
(320,0,l),
(714,640,l),
(713,700,l),
(375,150,l),
(312,700,l),
(125,700,l),
(115,659,l),
(133,659,o),
(158,659,o),
(178,659,cs),
(205,659,o),
(230,609,o),
(239,538,cs),
(301,0,l)
);
},
{
closed = 1;
nodes = (
(183,0,l),
(189,27,l),
(180,27,o),
(173,27,o),
(164,27,cs),
(120,27,o),
(96,54,o),
(104,92,cs),
(234,656,l),
(202,656,l),
(163,484,o),
(94,187,o),
(84,141,cs),
(68,74,o),
(32,27,o),
(-4,27,cs),
(-41,27,l),
(-48,0,l)
);
},
{
closed = 1;
nodes = (
(727,0,l),
(733,28,l),
(724,28,o),
(717,28,o),
(706,28,cs),
(668,28,o),
(648,53,o),
(656,88,cs),
(665,126,o),
(769,580,o),
(777,611,cs),
(783,640,o),
(803,660,o),
(825,660,cs),
(860,660,l),
(869,700,l),
(712,700,l),
(666,498,o),
(577,114,o),
(572,91,cs),
(563,54,o),
(550,28,o),
(539,28,cs),
(472,28,l),
(464,0,l)
);
}
);
width = 775;
},
{
associatedMasterId = m003;
layerId = "B10F72A2-F543-4F3C-913D-1BB69EE1B8FA";
name = "Groote Garmond Romyn";
shapes = (
{
closed = 1;
nodes = (
(442,0,l),
(731,640,l),
(714,700,l),
(466,150,l),
(242,700,l),
(22,700,l),
(22,662,l),
(43,662,o),
(72,662,o),
(96,662,cs),
(128,662,o),
(171,609,o),
(200,538,cs),
(419,0,l)
);
},
{
closed = 1;
nodes = (
(280,0,l),
(280,37,l),
(270,37,o),
(262,37,o),
(251,37,cs),
(199,37,o),
(163,54,o),
(163,92,cs),
(163,656,l),
(127,656,l),
(127,484,o),
(127,187,o),
(127,141,cs),
(127,74,o),
(107,37,o),
(65,37,cs),
(21,37,l),
(21,0,l)
);
},
{
closed = 1;
nodes = (
(920,0,l),
(920,38,l),
(909,38,o),
(901,38,o),
(888,38,cs),
(843,38,o),
(813,53,o),
(813,88,cs),
(813,126,o),
(813,580,o),
(813,611,cs),
(813,640,o),
(831,662,o),
(857,662,cs),
(898,662,l),
(898,700,l),
(713,700,l),
(713,498,o),
(713,114,o),
(713,91,cs),
(713,54,o),
(705,38,o),
(692,38,cs),
(613,38,l),
(611,0,l)
);
}
);
width = 940;
}
);
metricLeft = H;
metricRight = H;
unicode = 77;
},
{
glyphname = N;
lastChange = "2025-02-16 16:06:30 +0000";
layers = (
{
layerId = m003;
shapes = (
{
closed = 1;
nodes = (
(564,-6,l),
(609,189,o),
(689,535,o),
(700,579,cs),
(712,633,o),
(752,672,o),
(796,672,cs),
(829,672,l),
(835,700,l),
(565,700,l),
(559,672,l),
(568,672,o),
(603,672,o),
(615,672,cs),
(651,672,o),
(670,640,o),
(659,594,cs),
(557,164,l),
(269,700,l),
(110,697,l),
(103,669,l),
(114,669,o),
(124,669,o),
(136,669,cs),
(158,669,o),
(181,654,o),
(193,634,cs),
(536,-6,l)
);
},
{
closed = 1;
nodes = (
(222,0,l),
(228,27,l),
(177,27,o),
(173,27,o),
(164,27,cs),
(120,27,o),
(96,54,o),
(104,92,cs),
(234,656,l),
(202,656,l),
(163,484,o),
(94,187,o),
(84,141,cs),
(68,74,o),
(32,27,o),
(-4,27,cs),
(-30,27,l),
(-36,0,l)
);
}
);
width = 691;
},
{
associatedMasterId = m003;
layerId = "31385D10-2325-4DCE-A494-6CF8A131B4BB";
name = "Groote Garmond Romyn";
shapes = (
{
closed = 1;
nodes = (
(731,-6,l),
(731,189,o),
(731,535,o),
(731,579,cs),
(731,633,o),
(767,662,o),
(819,662,cs),
(858,662,l),
(858,700,l),
(540,700,l),
(540,662,l),
(551,662,o),
(592,662,o),
(606,662,cs),
(649,662,o),
(679,640,o),
(679,594,cs),
(679,164,l),
(195,700,l),
(5,697,l),
(5,659,l),
(18,659,o),
(29,659,o),
(43,659,cs),
(69,659,o),
(101,654,o),
(120,634,cs),
(698,-6,l)
);
},
{
closed = 1;
nodes = (
(326,0,l),
(326,37,l),
(266,37,o),
(262,37,o),
(251,37,cs),
(199,37,o),
(163,64,o),
(163,92,cs),
(163,656,l),
(127,656,l),
(127,484,o),
(127,187,o),
(127,141,cs),
(127,74,o),
(107,37,o),
(65,37,cs),
(35,37,l),
(35,0,l)
);
}
);
width = 840;
}
);
metricLeft = H;
metricRight = H;
unicode = 78;
},
{
glyphname = O;
lastChange = "2025-02-16 16:06:30 +0000";
layers = (
{
anchors = (
{
name = bottom;
pos = (333,0);
},
{
name = center;
pos = (440,350);
},
{
name = ogonek;
pos = (647,10);
},
{
name = top;
pos = (497,635);
},
{
name = topleft;
pos = (177,700);
},
{
name = topright;
pos = (916,700);
}
);
layerId = m003;
shapes = (
{
closed = 1;
nodes = (
(527,-11,o),
(702,145,o),
(753,365,cs),
(800,572,o),
(697,719,o),
(503,719,cs),
(312,719,o),
(142,572,o),
(95,365,cs),
(44,145,o),
(141,-11,o),
(331,-11,cs)
);
},
{
closed = 1;
nodes = (
(202,19,o),
(166,179,o),
(218,405,cs),
(256,571,o),
(378,689,o),
(499,689,cs),
(631,689,o),
(680,539,o),
(631,326,cs),
(589,146,o),
(455,19,o),
(334,19,c)
);
}
);
width = 757;
},
{
associatedMasterId = m003;
layerId = "1EEE1FB6-CC32-4165-B465-92C2FEBEA496";
name = "Groote Garmond Romyn";
shapes = (
{
closed = 1;
nodes = (
(675,-11,o),
(838,145,o),
(838,365,cs),
(838,572,o),
(676,719,o),
(448,719,cs),
(223,719,o),
(64,572,o),
(64,365,cs),
(64,145,o),
(221,-11,o),
(444,-11,cs)
);
},
{
closed = 1;
nodes = (
(308,29,o),
(198,179,o),
(198,405,cs),
(198,571,o),
(298,679,o),
(440,679,cs),
(595,679,o),
(705,539,o),
(705,326,cs),
(705,146,o),
(605,29,o),
(463,29,c)
);
}
);
width = 902;
}
);
metricLeft = o;
metricRight = o;
unicode = 79;
},
{
glyphname = P;
lastChange = "2025-02-16 16:06:30 +0000";
layers = (
{
layerId = m003;
shapes = (
{
closed = 1;
nodes = (
(232,0,l),
(238,28,l),
(233,28,o),
(213,28,o),
(204,28,cs),
(170,28,o),
(149,57,o),
(159,98,cs),
(170,148,o),
(280,626,o),
(284,642,cs),
(288,657,o),
(311,667,o),
(335,667,cs),
(423,667,o),
(470,595,o),
(445,486,cs),
(420,382,o),
(351,309,o),
(276,309,c),
(269,279,l),
(404,279,o),
(519,369,o),
(548,497,cs),
(576,616,o),
(506,702,o),
(380,702,cs),
(334,702,o),
(262,699,o),
(238,699,cs),
(224,699,o),
(179,702,o),
(128,702,c),
(121,672,l),
(168,672,o),
(202,653,o),
(195,625,cs),
(185,579,o),
(70,81,o),
(65,63,cs),
(61,43,o),
(38,28,o),
(18,28,cs),
(-13,28,l),
(-20,0,l)
);
}
);
width = 483;
},
{
associatedMasterId = m003;
layerId = "05470292-9480-414D-9D83-0793041B2DD9";
name = "Groote Garmond Romyn";
shapes = (
{
closed = 1;
nodes = (
(340,0,l),
(340,38,l),
(333,38,o),
(310,38,o),
(300,38,cs),
(260,38,o),
(227,57,o),
(227,98,cs),
(227,148,o),
(227,616,o),
(227,632,cs),
(227,647,o),
(252,657,o),
(280,657,cs),
(384,657,o),
(458,595,o),
(458,486,cs),
(458,382,o),
(396,319,o),
(308,319,c),
(308,279,l),
(466,279,o),
(577,369,o),
(577,497,cs),
(577,616,o),
(472,702,o),
(323,702,cs),
(269,702,o),
(185,699,o),
(157,699,cs),
(141,699,o),
(87,702,o),
(27,702,c),
(27,662,l),
(82,662,o),
(127,653,o),
(127,625,cs),
(127,579,o),
(127,81,o),
(127,63,cs),
(127,43,o),
(104,38,o),
(81,38,cs),
(44,38,l),
(44,0,l)
);
}
);
width = 604;
}
);
metricLeft = H;
metricRight = O;
unicode = 80;
},
{
glyphname = Q;
lastChange = "2025-02-16 16:14:03 +0000";
layers = (
{
layerId = m003;
shapes = (
{
closed = 1;
nodes = (
(525,-18,o),
(699,138,o),
(750,358,cs),
(798,565,o),
(694,712,o),
(500,712,cs),
(309,712,o),
(140,565,o),
(92,358,cs),
(41,138,o),
(139,-18,o),
(328,-18,cs)
);
},
{
closed = 1;
nodes = (
(835,-175,o),
(873,-171,o),
(900,-165,c),
(905,-140,l),
(687,-153,o),
(501,-84,o),
(455,27,c),
(405,8,o),
(360,-5,o),
(347,-5,cs),
(321,-5,o),
(278,13,o),
(243,38,c),
(242,8,l),
(359,-99,o),
(594,-175,o),
(807,-175,c)
);
},
{
closed = 1;
nodes = (
(210,12,o),
(163,172,o),
(215,398,cs),
(254,564,o),
(376,682,o),
(496,682,cs),
(628,682,o),
(677,532,o),
(628,319,cs),
(586,139,o),
(462,12,o),
(341,12,c)
);
}
);
width = 757;
},
{
associatedMasterId = m003;
layerId = "ACB1CD23-C5B2-4C45-81BA-4D5960A8FE17";
name = "Groote Garmond Romyn";
shapes = (
{
closed = 1;
nodes = (
(675,-18,o),
(838,138,o),
(838,358,cs),
(838,565,o),
(676,712,o),
(448,712,cs),
(223,712,o),
(64,565,o),
(64,358,cs),
(64,138,o),
(221,-18,o),
(444,-18,cs)
);
},
{
closed = 1;
nodes = (
(463,22,c),
(308,22,o),
(198,172,o),
(198,398,cs),
(198,564,o),
(298,672,o),
(440,672,cs),
(595,672,o),
(705,532,o),
(705,319,cs),
(705,139,o),
(605,22,o)
);
},
{
closed = 1;
nodes = (
(1083,-175,o),
(1127,-171,o),
(1156,-165,c),
(1156,-130,l),
(903,-143,o),
(665,-84,o),
(581,27,c),
(527,8,o),
(478,-5,o),
(463,-5,cs),
(432,-5,o),
(376,13,o),
(329,38,c),
(335,8,l),
(502,-99,o),
(799,-175,o),
(1050,-175,c)
);
}
);
width = 902;
}
);
metricLeft = O;
metricWidth = O;
unicode = 81;
},
{
glyphname = R;
lastChange = "2025-02-16 16:06:30 +0000";
layers = (
{
layerId = m003;
shapes = (
{
closed = 1;
nodes = (
(501,-3,o),
(557,-2,o),
(583,0,c),
(590,29,l),
(589,28,o),
(574,28,o),
(556,28,cs),
(533,28,o),
(485,41,o),
(474,66,cs),
(400,226,o),
(338,340,o),
(328,357,c),
(332,328,l),
(453,352,o),
(548,439,o),
(570,537,cs),
(591,627,o),
(524,700,o),
(405,700,cs),
(370,700,o),
(274,698,o),
(249,698,cs),
(205,698,o),
(163,700,o),
(120,700,c),
(113,672,l),
(119,672,o),
(119,672,o),
(131,672,cs),
(171,672,o),
(198,639,o),
(188,593,cs),
(175,539,o),
(75,103,o),
(68,73,cs),
(62,47,o),
(34,28,o),
(11,28,cs),
(-17,28,l),
(-23,0,l),
(215,0,l),
(221,28,l),
(210,28,o),
(193,28,o),
(168,28,cs),
(156,28,o),
(147,46,o),
(153,72,cs),
(163,116,o),
(272,588,o),
(280,625,cs),
(286,648,o),
(310,665,o),
(331,665,cs),
(352,665,o),
(365,665,o),
(385,665,cs),
(449,665,o),
(480,601,o),
(460,517,cs),
(439,426,o),
(361,362,o),
(271,362,cs),
(174,362,l),
(166,327,l),
(255,327,l),
(295,219,o),
(345,114,o),
(372,60,cs),
(389,23,o),
(417,-3,o),
(446,-3,cs)
);
}
);
width = 656;
},
{
associatedMasterId = m003;
layerId = "112862B9-426A-4217-842E-8D0AAC7DB232";
name = "Groote Garmond Romyn";
shapes = (
{
closed = 1;
nodes = (
(657,-3,o),
(723,-2,o),
(753,0,c),
(753,39,l),
(752,38,o),
(735,38,o),
(713,38,cs),
(687,38,o),
(631,56,o),
(611,81,cs),
(481,241,o),
(377,345,o),
(360,362,c),
(380,328,l),
(504,352,o),
(592,439,o),
(592,537,cs),
(592,627,o),
(493,700,o),
(353,700,cs),
(312,700,o),
(200,698,o),
(170,698,cs),
(119,698,o),
(69,700,o),
(18,700,c),
(18,662,l),
(25,662,o),
(24,662,o),
(39,662,cs),
(86,662,o),
(127,639,o),
(127,593,cs),
(127,539,o),
(127,103,o),
(127,73,cs),
(127,47,o),
(100,38,o),
(72,38,cs),
(40,38,l),
(40,0,l),
(320,0,l),
(320,38,l),
(306,38,o),
(287,38,o),
(257,38,cs),
(243,38,o),
(227,56,o),
(227,72,cs),
(227,116,o),
(227,588,o),
(227,625,cs),
(227,638,o),
(251,655,o),
(276,655,cs),
(300,655,o),
(316,655,o),
(339,655,cs),
(415,655,o),
(468,601,o),
(468,517,cs),
(468,426,o),
(393,372,o),
(287,372,cs),
(173,372,l),
(173,327,l),
(278,327,l),
(355,219,o),
(442,114,o),
(488,60,cs),
(519,23,o),
(559,-3,o),
(593,-3,cs)
);
}
);
width = 762;
}
);
metricLeft = H;
unicode = 82;
},
{
glyphname = S;
lastChange = "2025-02-16 16:06:30 +0000";
layers = (
{
layerId = m003;
shapes = (
{
closed = 1;
nodes = (
(293,-16,o),
(401,71,o),
(430,194,cs),
(476,395,o),
(191,384,o),
(233,563,cs),
(249,633,o),
(314,682,o),
(370,682,cs),
(436,682,o),
(467,618,o),
(461,527,c),
(474,527,l),
(515,704,l),
(494,704,l),
(472,673,l),
(454,696,o),
(412,712,o),
(369,712,cs),
(258,712,o),
(161,634,o),
(135,524,cs),
(90,329,o),
(373,334,o),
(330,148,cs),
(312,70,o),
(237,14,o),
(167,14,cs),
(81,14,o),
(46,95,o),
(71,209,c),
(43,209,l),
(18,100,l),
(37,32,o),
(99,-16,o),
(167,-16,cs)
);
}
);
width = 486;
},
{
associatedMasterId = m003;
layerId = "DF851C7D-90A0-4F94-AE59-87873875CD2D";
name = "Groote Garmond Romyn";
shapes = (
{
closed = 1;
nodes = (
(410,-16,o),
(514,71,o),
(514,194,cs),
(514,395,o),
(182,384,o),
(182,563,cs),
(182,633,o),
(234,672,o),
(300,672,cs),
(377,672,o),
(433,618,o),
(450,527,c),
(476,527,l),
(476,704,l),
(451,704,l),
(434,673,l),
(406,696,o),
(352,712,o),
(302,712,cs),
(171,712,o),
(78,634,o),
(78,524,cs),
(78,329,o),
(409,334,o),
(409,148,cs),
(409,70,o),
(348,24,o),
(266,24,cs),
(164,24,o),
(100,95,o),
(98,209,c),
(55,209,l),
(55,100,l),
(96,32,o),
(182,-16,o),
(262,-16,cs)
);
}
);
width = 578;
}
);
metricLeft = O;
metricRight = O;
unicode = 83;
},
{
glyphname = T;
lastChange = "2025-02-16 16:06:02 +0000";
layers = (
{
layerId = m003;
shapes = (
{
closed = 1;
nodes = (
(428,0,l),
(434,28,l),
(425,28,o),
(418,28,o),
(406,28,cs),
(394,28,o),
(343,32,o),
(350,66,cs),
(496,695,l),
(411,695,l),
(365,497,o),
(274,104,o),
(272,95,cs),
(266,68,o),
(233,24,o),
(201,24,cs),
(168,24,l),
(162,0,l)
);
},
{
closed = 1;
nodes = (
(714,532,l),
(738,713,l),
(687,700,l),
(205,700,l),
(158,711,l),
(108,542,l),
(141,536,l),
(203,640,l),
(650,640,l),
(687,526,l)
);
}
);
width = 625;
},
{
associatedMasterId = m003;
layerId = "79EFE187-6D43-44CE-9D11-59DE2A1E3B27";
name = "Groote Garmond Romyn";
shapes = (
{
closed = 1;
nodes = (
(514,0,l),
(514,38,l),
(503,38,o),
(495,38,o),
(481,38,cs),
(467,38,o),
(405,42,o),
(405,66,cs),
(405,695,l),
(305,695,l),
(305,497,o),
(305,104,o),
(305,95,cs),
(305,68,o),
(278,34,o),
(241,34,cs),
(213,34,l),
(213,0,l)
);
},
{
closed = 1;
nodes = (
(689,552,l),
(673,713,l),
(629,700,l),
(62,700,l),
(27,711,l),
(9,562,l),
(35,556,l),
(82,655,l),
(608,655,l),
(660,546,l)
);
}
);
width = 698;
}
);
unicode = 84;
},
{
glyphname = U;
lastChange = "2025-02-16 16:06:30 +0000";
layers = (
{
anchors = (
{
name = bottom;
pos = (276,0);
},
{
name = ogonek;
pos = (572,10);
},
{
name = top;
pos = (427,635);
},
{
name = topright;
pos = (836,700);
}
);
layerId = m003;
shapes = (
{
closed = 1;
nodes = (
(476,-11,o),
(600,95,o),
(635,246,cs),
(682,447,o),
(712,578,o),
(720,611,cs),
(727,642,o),
(750,671,o),
(779,671,cs),
(790,671,l),
(797,699,l),
(559,699,l),
(552,671,l),
(584,671,o),
(636,671,o),
(647,671,cs),
(672,671,o),
(682,634,o),
(675,603,cs),
(669,578,o),
(595,256,o),
(592,241,cs),
(563,118,o),
(447,31,o),
(311,31,cs),
(207,31,o),
(138,98,o),
(160,193,cs),
(175,259,o),
(255,606,o),
(260,626,cs),
(267,656,o),
(300,671,o),
(325,671,cs),
(339,671,l),
(346,699,l),
(142,699,l),
(135,671,l),
(141,671,o),
(146,671,o),
(154,671,cs),
(169,671,o),
(176,631,o),
(162,570,cs),
(149,514,o),
(87,244,o),
(75,192,cs),
(47,73,o),
(153,-11,o),
(310,-11,cs)
);
}
);
width = 692;
},
{
associatedMasterId = m003;
layerId = "0D632471-F035-43A1-881F-2FF9F93BB3C1";
name = "Groote Garmond Romyn";
shapes = (
{
closed = 1;
nodes = (
(602,-11,o),
(742,100,o),
(742,256,cs),
(742,457,o),
(742,578,o),
(742,611,cs),
(742,642,o),
(762,661,o),
(795,661,cs),
(809,661,l),
(809,699,l),
(529,699,l),
(529,661,l),
(566,661,o),
(627,661,o),
(640,661,cs),
(670,661,o),
(682,634,o),
(682,603,cs),
(682,578,o),
(682,266,o),
(682,251,cs),
(682,128,o),
(573,41,o),
(419,41,cs),
(289,41,o),
(197,108,o),
(197,203,cs),
(197,269,o),
(197,606,o),
(197,626,cs),
(197,656,o),
(232,661,o),
(262,661,cs),
(278,661,l),
(278,699,l),
(38,699,l),
(38,661,l),
(45,661,o),
(51,661,o),
(60,661,cs),
(78,661,o),
(97,631,o),
(97,570,cs),
(97,514,o),
(97,254,o),
(97,202,cs),
(97,77,o),
(225,-11,o),
(405,-11,cs)
);
}
);
width = 826;
}
);
metricLeft = n;
metricRight = n;
unicode = 85;
},
{
glyphname = V;
lastChange = "2025-02-16 16:06:02 +0000";
layers = (
{
layerId = m003;
shapes = (
{
closed = 1;
nodes = (
(316,0,l),
(658,641,ls),
(667,657,o),
(690,669,o),
(712,669,cs),
(747,669,l),
(755,700,l),
(559,700,l),
(552,669,l),
(598,669,ls),
(618,669,o),
(625,658,o),
(616,641,cs),
(354,150,l),
(291,621,ls),
(287,651,o),
(309,672,o),
(334,672,cs),
(378,672,l),
(385,700,l),
(155,700,l),
(149,672,l),
(178,672,ls),
(190,672,o),
(201,653,o),
(206,627,c),
(284,-12,l)
);
}
);
width = 616;
},
{
associatedMasterId = m003;
layerId = "CEA38F5D-B215-4D7E-BAC0-79E16FCC6AFD";
name = "Groote Garmond Romyn";
shapes = (
{
closed = 1;
nodes = (
(388,0,l),
(617,641,ls),
(623,657,o),
(646,659,o),
(672,659,cs),
(714,659,l),
(714,700,l),
(484,700,l),
(484,659,l),
(538,659,ls),
(562,659,o),
(573,658,o),
(567,641,cs),
(392,150,l),
(190,621,ls),
(177,651,o),
(197,662,o),
(227,662,cs),
(279,662,l),
(279,700,l),
(9,700,l),
(9,662,l),
(43,662,ls),
(57,662,o),
(76,653,o),
(88,627,c),
(354,-12,l)
);
}
);
width = 723;
}
);
unicode = 86;
},
{
glyphname = W;
lastChange = "2025-02-16 16:06:02 +0000";
layers = (
{
layerId = m003;
shapes = (
{
closed = 1;
nodes = (
(596,0,l),
(922,641,ls),
(930,657,o),
(953,669,o),
(975,669,cs),
(1011,669,l),
(1018,700,l),
(859,700,l),
(852,669,l),
(861,669,ls),
(882,669,o),
(888,658,o),
(879,641,cs),
(648,167,l),
(627,616,ls),
(626,646,o),
(640,672,o),
(666,672,cs),
(693,672,l),
(699,700,l),
(487,700,l),
(480,672,l),
(509,672,ls),
(521,672,o),
(533,653,o),
(537,627,c),
(565,-12,l)
);
},
{
closed = 1;
nodes = (
(265,0,l),
(624,672,l),
(581,672,l),
(317,164,l),
(295,621,ls),
(294,651,o),
(309,672,o),
(334,672,cs),
(361,672,l),
(368,700,l),
(155,700,l),
(149,672,l),
(178,672,ls),
(190,672,o),
(201,653,o),
(206,627,c),
(233,-12,l)
);
}
);
width = 880;
},
{
associatedMasterId = m003;
layerId = "7E06DBC4-A713-4A6A-8382-A07154152019";
name = "Groote Garmond Romyn";
shapes = (
{
closed = 1;
nodes = (
(718,0,l),
(927,641,ls),
(929,648,o),
(956,659,o),
(982,659,cs),
(1024,659,l),
(1024,700,l),
(837,700,l),
(837,659,l),
(848,659,ls),
(872,659,o),
(880,649,o),
(877,641,cs),
(732,187,l),
(587,616,ls),
(577,646,o),
(587,662,o),
(617,662,cs),
(649,662,l),
(649,700,l),
(399,700,l),
(399,662,l),
(433,662,ls),
(447,662,o),
(466,653,o),
(478,627,c),
(684,-12,l)
);
},
{
closed = 1;
nodes = (
(328,0,l),
(568,662,l),
(518,662,l),
(343,184,l),
(195,621,ls),
(185,651,o),
(197,662,o),
(227,662,cs),
(259,662,l),
(259,700,l),
(9,700,l),
(9,662,l),
(43,662,ls),
(57,662,o),
(76,653,o),
(88,627,c),
(294,-12,l)
);
}
);
width = 1033;
}
);
unicode = 87;
},
{
glyphname = X;
lastChange = "2025-02-16 16:06:30 +0000";
layers = (
{
layerId = m003;
shapes = (
{
closed = 1;
nodes = (
(581,0,l),
(587,28,l),
(562,28,l),
(547,28,o),
(521,49,o),
(511,79,cs),
(453,259,o),
(372,493,o),
(312,642,cs),
(306,660,o),
(318,672,o),
(341,672,cs),
(393,672,l),
(400,700,l),
(162,700,l),
(155,672,l),
(165,672,l),
(183,672,o),
(208,662,o),
(213,649,cs),
(230,601,o),
(394,132,o),
(399,116,cs),
(416,64,o),
(398,28,o),
(370,28,cs),
(332,28,l),
(326,0,l)
);
},
{
closed = 1;
nodes = (
(211,0,l),
(217,28,l),
(210,28,o),
(211,28,o),
(194,28,cs),
(143,28,o),
(131,59,o),
(165,104,cs),
(174,115,o),
(264,215,o),
(383,346,c),
(370,369,l),
(299,290,o),
(185,166,o),
(95,70,cs),
(71,45,o),
(27,28,o),
(-11,28,c),
(-18,0,l)
);
},
{
closed = 1;
nodes = (
(664,651,l),
(676,665,o),
(692,672,o),
(704,672,cs),
(739,672,l),
(746,700,l),
(515,700,l),
(509,672,l),
(521,672,o),
(530,672,o),
(573,672,cs),
(602,672,o),
(601,633,o),
(556,579,cs),
(516,530,o),
(507,520,o),
(368,359,c),
(381,336,l)
);
}
);
width = 661;
},
{
associatedMasterId = m003;
layerId = "16477629-8259-447D-B812-091909061D05";
name = "Groote Garmond Romyn";
shapes = (
{
closed = 1;
nodes = (
(722,0,l),
(722,38,l),
(692,38,l),
(675,38,o),
(638,59,o),
(618,89,cs),
(501,269,o),
(343,483,o),
(232,632,cs),
(219,650,o),
(230,662,o),
(257,662,cs),
(319,662,l),
(319,700,l),
(39,700,l),
(39,662,l),
(51,662,l),
(72,662,o),
(104,652,o),
(113,639,cs),
(146,591,o),
(466,132,o),
(477,116,cs),
(511,64,o),
(500,38,o),
(466,38,cs),
(422,38,l),
(422,0,l)
);
},
{
closed = 1;
nodes = (
(287,0,l),
(287,38,l),
(278,38,o),
(279,38,o),
(260,38,cs),
(200,38,o),
(177,59,o),
(205,104,cs),
(212,115,o),
(294,210,o),
(399,341,c),
(369,374,l),
(307,295,o),
(211,176,o),
(131,80,cs),
(110,55,o),
(63,38,o),
(18,38,c),
(18,0,l)
);
},
{
closed = 1;
nodes = (
(643,641,l),
(654,655,o),
(670,662,o),
(685,662,cs),
(726,662,l),
(726,700,l),
(455,700,l),
(455,662,l),
(469,662,o),
(480,662,o),
(530,662,cs),
(565,662,o),
(574,633,o),
(536,579,cs),
(502,530,o),
(489,525,o),
(369,364,c),
(399,331,l)
);
}
);
width = 744;
}
);
metricLeft = n;
metricRight = n;
unicode = 88;
},
{
glyphname = Y;
lastChange = "2025-02-16 16:06:02 +0000";
layers = (
{
layerId = m003;
shapes = (
{
closed = 1;
nodes = (
(360,319,l),
(294,632,l),
(289,660,o),
(313,672,o),
(337,672,cs),
(412,672,l),
(419,700,l),
(155,700,l),
(149,672,l),
(184,672,l),
(194,672,o),
(207,662,o),
(211,649,c),
(284,292,l)
);
},
{
closed = 1;
nodes = (
(389,0,l),
(395,28,l),
(386,28,o),
(379,28,o),
(367,28,cs),
(355,28,o),
(304,32,o),
(311,66,cs),
(369,314,l),
(284,314,l),
(233,95,l),
(227,68,o),
(194,24,o),
(162,24,cs),
(139,24,l),
(133,0,l)
);
},
{
closed = 1;
nodes = (
(369,314,l),
(606,651,l),
(618,663,o),
(634,672,o),
(647,672,cs),
(682,672,l),
(688,700,l),
(509,700,l),
(502,672,l),
(549,672,l),
(564,672,o),
(564,655,o),
(548,630,cs),
(336,314,l)
);
}
);
width = 550;
},
{
associatedMasterId = m003;
layerId = "E802D1BE-37AB-4F09-B5E4-974714F43EA4";
name = "Groote Garmond Romyn";
shapes = (
{
closed = 1;
nodes = (
(474,0,l),
(474,38,l),
(463,38,o),
(455,38,o),
(441,38,cs),
(427,38,o),
(365,42,o),
(365,66,cs),
(365,314,l),
(265,314,l),
(265,95,l),
(265,68,o),
(238,34,o),
(201,34,cs),
(173,34,l),
(173,0,l)
);
},
{
closed = 1;
nodes = (
(365,319,l),
(202,632,l),
(189,660,o),
(202,662,o),
(230,662,cs),
(319,662,l),
(319,700,l),
(9,700,l),
(9,662,l),
(51,662,l),
(62,662,o),
(80,662,o),
(89,649,c),
(271,292,l)
);
},
{
closed = 1;
nodes = (
(553,641,l),
(563,653,o),
(580,662,o),
(595,662,cs),
(636,662,l),
(636,700,l),
(425,700,l),
(425,662,l),
(480,662,l),
(498,662,o),
(504,655,o),
(490,630,cs),
(312,314,l),
(365,314,l)
);
}
);
width = 645;
}
);
unicode = 89;
},
{
glyphname = Z;
lastChange = "2025-02-16 16:06:30 +0000";
layers = (
{
layerId = m003;
shapes = (
{
closed = 1;
nodes = (
(190,0,l),
(198,35,l),
(139,35,ls),
(119,35,o),
(118,52,o),
(137,77,c),
(603,649,l),
(615,700,l),
(215,700,l),
(115,482,l),
(143,476,l),
(209,587,o),
(274,665,o),
(298,665,cs),
(484,665,ls),
(504,665,o),
(506,650,o),
(487,628,cs),
(390,516,o),
(180,256,o),
(-23,0,c)
);
},
{
closed = 1;
nodes = (
(441,0,l),
(530,212,l),
(506,219,l),
(461,141,o),
(383,35,o),
(332,35,cs),
(259,35,l),
(70,35,l),
(17,35,l),
(9,0,l)
);
}
);
width = 573;
},
{
associatedMasterId = m003;
layerId = "715A520A-9E7F-47F9-BFC8-2BDDB641084E";
name = "Groote Garmond Romyn";
shapes = (
{
closed = 1;
nodes = (
(295,0,l),
(295,45,l),
(226,45,ls),
(202,45,o),
(196,52,o),
(212,77,c),
(605,649,l),
(605,700,l),
(134,700,l),
(76,482,l),
(121,476,l),
(168,587,o),
(213,655,o),
(242,655,cs),
(460,655,ls),
(484,655,o),
(490,650,o),
(474,628,cs),
(391,516,o),
(214,256,o),
(45,0,c)
);
},
{
closed = 1;
nodes = (
(590,0,l),
(638,212,l),
(597,219,l),
(566,141,o),
(513,45,o),
(453,45,cs),
(367,45,l),
(145,45,l),
(82,45,l),
(82,0,l)
);
}
);
width = 693;
}
);
unicode = 90;
},
{
glyphname = N.alt;
lastChange = "2024-11-11 18:59:14 +0000";
layers = (
{
layerId = m003;
shapes = (
{
closed = 1;
nodes = (
(611,-1,l),
(753,614,ls),
(766,672,o),
(821,672,o),
(842,672,cs),
(863,672,o),
(887,672,o),
(910,672,c),
(917,700,l),
(555,700,l),
(548,672,l),
(646,672,ls),
(664,672,o),
(700,647,o),
(693,616,cs),
(686,585,o),
(618,289,o),
(579,119,c),
(598,101,l),
(341,702,l),
(136,702,l),
(130,674,l),
(234,674,ls),
(261,674,o),
(282,632,o),
(292,609,cs),
(544,-1,l)
);
},
{
closed = 1;
nodes = (
(346,4,l),
(352,28,l),
(315,28,o),
(273,28,o),
(240,28,cs),
(207,28,o),
(196,66,o),
(206,108,cs),
(326,627,l),
(288,702,l),
(283,702,l),
(269,640,o),
(145,105,o),
(143,94,cs),
(139,77,o),
(116,32,o),
(87,32,cs),
(-50,32,l),
(-56,4,l)
);
}
);
width = 781;
}
);
},
{
color = 4;
glyphname = a;
lastChange = "2025-02-16 16:09:11 +0000";
layers = (
{
anchors = (
{
name = bottom;
pos = (176,0);
},
{
name = ogonek;
pos = (363,10);
},
{
name = top;
pos = (308,435);
}
);
background = {
shapes = (
{
closed = 1;
nodes = (
(398,460,l),
(385,462,o),
(361,466,o),
(348,466,qs),
(334,466,o),
(299,460,o),
(254,441,o),
(201,402,o),
(167,368,qs),
(130,329,o),
(73,245,o),
(35,163,o),
(16,91,o),
(16,64,qs),
(16,34,o),
(40,-9,o),
(66,-9,qs),
(84,-9,o),
(123,7,o),
(161,33,o),
(196,63,o),
(209,76,qs),
(215,82,o),
(265,135,o),
(294,173,q),
(288,148,o),
(272,79,o),
(272,47,qs),
(272,44,o),
(273,25,o),
(281,5,o),
(296,-10,o),
(310,-10,qs),
(331,-10,o),
(380,20,o),
(429,63,o),
(468,108,o),
(480,122,q),
(460,142,l),
(452,132,o),
(425,104,o),
(397,78,o),
(372,59,o),
(364,59,qs),
(357,59,o),
(351,73,o),
(351,80,qs),
(351,93,o),
(358,128,o),
(361,143,qs),
(384,235,o),
(446,406,o),
(483,503,q),
(481,506,l),
(411,498,l)
);
},
{
closed = 1;
nodes = (
(336,428,o),
(352,422,o),
(365,409,o),
(365,396,qs),
(365,384,o),
(351,340,o),
(327,285,o),
(296,227,o),
(278,203,qs),
(267,188,o),
(227,140,o),
(183,93,o),
(139,59,o),
(126,59,qs),
(103,59,o),
(103,99,qs),
(103,122,o),
(122,187,o),
(153,259,o),
(196,329,o),
(242,387,o),
(291,426,o),
(315,428,qs),
(320,428,o)
);
}
);
};
layerId = m003;
shapes = (
{
closed = 1;
nodes = (
(139,-10,o),
(258,94,o),
(339,240,c),
(339,293,l),
(266,161,o),
(169,59,o),
(122,59,cs),
(94,59,o),
(99,119,o),
(132,211,cs),
(181,342,o),
(260,432,o),
(327,432,cs),
(343,432,o),
(371,413,o),
(391,397,c),
(427,452,l),
(407,464,o),
(378,466,o),
(359,466,cs),
(238,466,o),
(105,346,o),
(42,176,cs),
(3,67,o),
(12,-10,o),
(69,-10,cs)
);
},
{
closed = 1;
nodes = (
(359,-9,o),
(414,39,o),
(480,122,c),
(460,141,l),
(411,80,o),
(372,59,o),
(364,59,cs),
(343,59,o),
(351,112,o),
(377,198,cs),
(406,295,o),
(444,420,o),
(488,508,c),
(410,500,l),
(316,250,o),
(327,266,o),
(304,204,cs),
(262,91,o),
(259,-9,o),
(305,-9,cs)
);
}
);
width = 473;
},
{
associatedMasterId = m003;
layerId = "0DE6FB79-B0B6-414C-BAFE-4B31CAFD69E7";
name = "7. Nov. 24, 00:06";
shapes = (
{
closed = 1;
nodes = (
(386,427,l),
(364,443,o),
(341,460,o),
(326,460,cs),
(253,460,o),
(163,346,o),
(113,184,cs),
(95,125,o),
(89,76,o),
(108,76,cs),
(131,76,o),
(206,136,o),
(276,208,c),
(293,190,l),
(187,77,o),
(81,-10,o),
(46,-10,cs),
(-3,-10,o),
(-12,61,o),
(16,152,cs),
(81,363,o),
(222,508,o),
(354,508,cs),
(374,508,o),
(402,493,o),
(424,476,c)
);
},
{
closed = 1;
nodes = (
(457,500,l),
(414,395,o),
(364,261,o),
(334,177,cs),
(307,105,o),
(302,54,o),
(322,54,cs),
(345,54,o),
(386,119,o),
(421,210,c),
(451,210,l),
(402,82,o),
(324,-8,o),
(263,-8,cs),
(220,-8,o),
(211,51,o),
(242,135,cs),
(211,52,o),
(288,250,o),
(382,500,c)
);
}
);
width = 467;
},
{
associatedMasterId = m003;
background = {
shapes = (
{
closed = 1;
nodes = (
(200,83,o),
(113,-8,o),
(67,-8,cs),
(3,-8,o),
(-18,54,o),
(15,141,cs),
(38,202,o),
(65,270,o),
(82,315,cs),
(109,387,o),
(115,438,o),
(96,438,cs),
(72,438,o),
(29,373,o),
(-8,282,c),
(-38,282,l),
(15,414,o),
(95,508,o),
(155,508,cs),
(199,508,o),
(206,445,o),
(173,357,cs),
(136,259,o),
(109,190,o),
(109,192,cs),
(83,118,o),
(83,66,o),
(110,66,cs),
(145,66,o),
(215,145,o),
(277,257,c),
(277,212,l)
);
},
{
closed = 1;
nodes = (
(442,500,l),
(402,401,o),
(351,268,o),
(319,177,cs),
(292,105,o),
(287,54,o),
(307,54,cs),
(330,54,o),
(371,119,o),
(406,210,c),
(436,210,l),
(387,82,o),
(309,-8,o),
(248,-8,cs),
(205,-8,o),
(196,51,o),
(227,135,cs),
(196,52,o),
(273,250,o),
(367,500,c)
);
}
);
};
layerId = "90AB4BE1-A270-4CBB-8974-CA3C0A24FD98";
name = "8. Nov. 24, 10:52";
shapes = (
{
closed = 1;
nodes = (
(376,417,l),
(343,441,o),
(313,452,o),
(286,452,cs),
(209,452,o),
(152,362,o),
(103,205,cs),
(89,162,o),
(82,126,o),
(82,101,cs),
(82,79,o),
(101,56,o),
(112,56,cs),
(166,56,o),
(230,120,o),
(286,197,c),
(293,190,l),
(221,73,o),
(135,-10,o),
(86,-10,cs),
(16,-10,o),
(-13,57,o),
(16,152,cs),
(80,361,o),
(220,508,o),
(354,508,cs),
(372,508,o),
(401,495,o),
(424,476,c)
);
},
{
closed = 1;
nodes = (
(460,508,l),
(424,421,o),
(372,284,o),
(334,177,cs),
(307,105,o),
(302,54,o),
(322,54,cs),
(345,54,o),
(386,119,o),
(421,210,c),
(451,210,l),
(402,82,o),
(324,-8,o),
(263,-8,cs),
(220,-8,o),
(211,51,o),
(242,135,cs),
(211,52,o),
(288,250,o),
(382,500,c)
);
},
{
closed = 1;
nodes = (
(89,-10,o),
(183,73,o),
(293,190,c),
(276,208,l),
(195,125,o),
(126,66,o),
(109,66,cs),
(83,66,o),
(82,115,o),
(107,184,cs),
(166,346,o),
(257,460,o),
(326,460,cs),
(335,460,o),
(359,446,o),
(386,427,c),
(424,476,l),
(400,495,o),
(371,508,o),
(354,508,cs),
(232,508,o),
(91,361,o),
(15,152,cs),
(-19,57,o),
(2,-10,o),
(66,-10,cs)
);
}
);
width = 467;
}
);
unicode = 97;
},
{
glyphname = b;
lastChange = "2025-02-16 16:09:17 +0000";
layers = (
{
background = {
shapes = (
{
closed = 1;
nodes = (
(227,-8,o),
(351,116,o),
(415,291,cs),
(461,418,o),
(441,508,o),
(367,508,cs),
(301,508,o),
(190,383,o),
(99,207,c),
(128,189,l),
(194,332,o),
(270,434,o),
(310,434,cs),
(363,434,o),
(372,351,o),
(331,234,cs),
(293,127,o),
(231,52,o),
(182,52,cs),
(130,52,o),
(91,86,o),
(88,133,c),
(21,41,l),
(56,12,o),
(95,-8,o),
(116,-8,cs)
);
},
{
closed = 1;
nodes = (
(110,79,o),
(255,572,o),
(298,700,c),
(223,700,l),
(21,41,l),
(90,18,l)
);
},
{
closed = 1;
nodes = (
(223,700,l),
(109,700,l),
(101,672,l),
(155,675,o),
(203,659,o),
(214,634,c)
);
}
);
};
layerId = m003;
shapes = (
{
closed = 1;
nodes = (
(69,61,o),
(116,28,o),
(158,32,c),
(114,32,o),
(101,88,o),
(126,166,cs),
(164,287,o),
(222,466,o),
(266,597,cs),
(273,618,o),
(295,677,o),
(320,738,c),
(278,720,o),
(188,707,o),
(103,707,c),
(98,677,l),
(166,681,o),
(208,668,o),
(200,645,c),
(197,626,o),
(190,596,o),
(183,574,cs),
(101,316,o),
(41,130,o),
(40,124,c),
(25,76,l)
);
},
{
closed = 1;
nodes = (
(152,361,l),
(187,408,o),
(244,441,o),
(289,441,cs),
(369,441,o),
(386,334,o),
(331,183,cs),
(300,95,o),
(228,32,o),
(158,32,cs),
(139,32,o),
(107,39,o),
(95,76,c),
(25,76,l),
(75,26,o),
(135,-10,o),
(169,-10,cs),
(267,-10,o),
(370,84,o),
(417,217,cs),
(476,380,o),
(441,496,o),
(332,496,cs),
(273,496,o),
(198,459,o),
(152,407,c)
);
},
{
closed = 0;
nodes = (
(198,501,l)
);
}
);
width = 455;
}
);
metricLeft = l;
metricRight = o;
unicode = 98;
},
{
color = 4;
glyphname = c;
lastChange = "2025-02-16 16:09:25 +0000";
layers = (
{
background = {
shapes = (
{
closed = 1;
nodes = (
(207,-8,o),
(294,45,o),
(350,120,c),
(331,141,l),
(287,88,o),
(227,51,o),
(185,51,cs),
(128,51,o),
(121,146,o),
(169,280,cs),
(206,385,o),
(264,460,o),
(308,460,cs),
(330,460,o),
(335,427,o),
(320,380,cs),
(297,316,o),
(216,258,o),
(125,240,c),
(117,207,l),
(255,236,o),
(373,316,o),
(403,400,cs),
(424,463,o),
(395,508,o),
(334,508,cs),
(235,508,o),
(128,401,o),
(76,250,cs),
(25,99,o),
(51,-8,o),
(140,-8,cs)
);
},
{
closed = 0;
nodes = (
(619,315,l),
(619,315,o),
(620,315,o),
(620,315,c)
);
},
{
closed = 0;
nodes = (
(621,315,l),
(621,315,o),
(621,315,o),
(622,315,c)
);
}
);
};
layerId = m003;
shapes = (
{
closed = 1;
nodes = (
(192,-8,o),
(279,45,o),
(335,120,c),
(316,141,l),
(272,88,o),
(212,51,o),
(170,51,cs),
(108,51,o),
(107,167,o),
(168,332,cs),
(200,419,o),
(252,480,o),
(294,480,cs),
(339,480,o),
(354,432,o),
(329,363,cs),
(326,352,o),
(329,344,o),
(337,344,cs),
(372,344,o),
(403,364,o),
(412,393,cs),
(434,460,o),
(392,508,o),
(311,508,cs),
(217,508,o),
(119,423,o),
(74,302,cs),
(6,120,o),
(27,-8,o),
(125,-8,cs)
);
}
);
width = 412;
}
);
metricLeft = o;
metricRight = o;
unicode = 99;
},
{
color = 4;
glyphname = d;
lastChange = "2025-02-16 16:09:40 +0000";
layers = (
{
layerId = m003;
shapes = (
{
closed = 1;
nodes = (
(448,700,l),
(334,700,l),
(328,672,l),
(383,675,o),
(431,659,o),
(443,634,c)
);
},
{
closed = 1;
nodes = (
(338,-8,o),
(413,38,o),
(450,102,c),
(432,121,l),
(404,79,o),
(366,50,o),
(340,50,cs),
(324,50,o),
(323,85,o),
(339,135,cs),
(382,271,o),
(444,462,o),
(489,597,cs),
(499,628,o),
(522,686,o),
(543,738,c),
(501,720,o),
(411,707,o),
(326,707,c),
(321,677,l),
(389,681,o),
(431,668,o),
(423,645,c),
(420,625,o),
(413,596,o),
(406,574,cs),
(320,305,o),
(256,106,o),
(253,93,cs),
(239,34,o),
(246,-8,o),
(270,-8,cs)
);
},
{
closed = 1;
nodes = (
(139,-10,o),
(258,94,o),
(339,240,c),
(339,293,l),
(266,161,o),
(169,59,o),
(122,59,cs),
(94,59,o),
(99,119,o),
(132,211,cs),
(181,342,o),
(260,432,o),
(327,432,cs),
(343,432,o),
(371,413,o),
(391,397,c),
(427,452,l),
(407,464,o),
(378,466,o),
(359,466,cs),
(238,466,o),
(105,346,o),
(42,176,cs),
(3,67,o),
(12,-10,o),
(69,-10,cs)
);
}
);
width = 465;
},
{
associatedMasterId = m003;
layerId = "993377BE-703F-43F0-9103-9C55914F64D0";
name = "7. Nov. 24, 00:11";
shapes = (
{
closed = 1;
nodes = (
(98,-3,o),
(197,77,o),
(303,190,c),
(286,208,l),
(216,136,o),
(150,85,o),
(127,85,cs),
(108,85,o),
(107,127,o),
(125,186,cs),
(175,348,o),
(261,463,o),
(334,463,cs),
(348,463,o),
(373,451,o),
(396,435,c),
(434,484,l),
(412,501,o),
(382,513,o),
(362,513,cs),
(230,513,o),
(91,363,o),
(26,152,cs),
(-2,61,o),
(14,-3,o),
(63,-3,cs)
);
},
{
closed = 1;
nodes = (
(326,-6,o),
(410,88,o),
(463,220,c),
(433,220,l),
(402,142,o),
(359,87,o),
(330,87,cs),
(318,87,o),
(325,128,o),
(347,187,cs),
(369,248,o),
(481,573,o),
(531,701,c),
(456,701,l),
(255,145,l),
(222,57,o),
(225,-6,o),
(262,-6,cs)
);
},
{
closed = 1;
nodes = (
(336,648,l),
(391,651,o),
(437,635,o),
(447,610,c),
(456,701,l),
(342,702,l)
);
}
);
width = 463;
}
);
metricWidth = a;
unicode = 100;
},
{
color = 4;
glyphname = e;
lastChange = "2025-02-16 16:09:44 +0000";
layers = (
{
background = {
shapes = (
{
closed = 1;
nodes = (
(302,131,o),
(267,100,o),
(230,73,o),
(191,55,o),
(171,55,qs),
(155,55,o),
(137,73,o),
(127,100,o),
(125,132,o),
(125,148,qs),
(125,172,o),
(128,200,o),
(131,219,q),
(157,231,o),
(217,261,o),
(278,295,o),
(330,330,o),
(347,346,qs),
(374,370,o),
(390,415,o),
(390,436,qs),
(390,468,o),
(359,507,o),
(328,507,qs),
(313,507,o),
(269,494,o),
(215,462,o),
(155,413,o),
(127,376,qs),
(99,341,o),
(64,267,o),
(41,197,o),
(32,135,o),
(32,111,qs),
(32,76,o),
(48,30,o),
(72,3,o),
(103,-8,o),
(118,-8,qs),
(150,-8,o),
(216,22,o),
(275,64,o),
(325,109,o),
(338,122,q),
(317,145,l)
);
},
{
closed = 1;
nodes = (
(193,393,o),
(238,434,qs),
(254,449,o),
(277,460,o),
(286,460,qs),
(311,460,o),
(311,424,qs),
(311,395,o),
(287,351,o),
(242,314,o),
(179,279,o),
(141,259,q),
(152,297,o)
);
}
);
};
layerId = m003;
shapes = (
{
closed = 1;
nodes = (
(188,-8,o),
(275,45,o),
(331,120,c),
(312,141,l),
(268,88,o),
(208,51,o),
(166,51,cs),
(109,51,o),
(102,146,o),
(150,280,cs),
(187,385,o),
(245,460,o),
(289,460,cs),
(311,460,o),
(316,427,o),
(301,380,cs),
(278,316,o),
(197,258,o),
(106,240,c),
(98,207,l),
(236,236,o),
(354,316,o),
(384,400,cs),
(405,463,o),
(376,508,o),
(315,508,cs),
(216,508,o),
(109,401,o),
(57,250,cs),
(6,99,o),
(32,-8,o),
(121,-8,cs)
);
},
{
closed = 0;
nodes = (
(600,315,l),
(600,315,o),
(601,315,o),
(601,315,c)
);
},
{
closed = 0;
nodes = (
(602,315,l),
(602,315,o),
(602,315,o),
(603,315,c)
);
}
);
width = 403;
}
);
metricLeft = o;
metricRight = o;
unicode = 101;
},
{
glyphname = f;
lastChange = "2025-02-16 16:09:48 +0000";
layers = (
{
background = {
shapes = (
{
closed = 1;
nodes = (
(59,406,l),
(130,407,l),
(106,315,o),
(71,180,o),
(45,82,o),
(26,17,o),
(13,-28,o),
(4,-58,o),
(-1,-71,qs),
(-6,-83,o),
(-23,-125,o),
(-49,-165,o),
(-85,-195,o),
(-107,-195,qs),
(-124,-195,o),
(-140,-180,o),
(-143,-175,qs),
(-151,-164,o),
(-165,-140,o),
(-183,-140,qs),
(-193,-140,o),
(-208,-152,o),
(-219,-168,o),
(-225,-185,o),
(-225,-191,qs),
(-225,-210,o),
(-180,-233,o),
(-146,-233,qs),
(-89,-233,o),
(23,-159,o),
(63,-74,qs),
(83,-32,o),
(112,69,o),
(129,135,qs),
(201,407,l),
(294,405,l),
(314,442,l),
(210,440,l),
(222,483,o),
(249,572,o),
(284,646,o),
(329,693,o),
(358,693,qs),
(365,693,o),
(382,689,o),
(396,675,qs),
(402,668,o),
(413,655,o),
(420,650,qs),
(430,641,o),
(442,641,qs),
(450,641,o),
(464,652,o),
(475,667,o),
(481,685,o),
(481,693,qs),
(481,707,o),
(460,722,o),
(433,730,o),
(407,731,o),
(401,731,qs),
(336,731,o),
(247,671,o),
(217,627,qs),
(187,582,o),
(151,481,o),
(138,439,q),
(68,442,l)
);
}
);
};
layerId = m003;
shapes = (
{
closed = 1;
nodes = (
(1,-237,o),
(111,-95,o),
(158,113,cs),
(190,255,o),
(211,402,o),
(243,544,cs),
(264,638,o),
(322,695,o),
(367,695,cs),
(416,695,o),
(442,660,o),
(429,611,cs),
(425,598,o),
(429,588,o),
(439,588,cs),
(472,588,o),
(501,608,o),
(508,636,cs),
(522,693,o),
(476,733,o),
(396,733,cs),
(287,733,o),
(176,632,o),
(146,481,cs),
(118,339,o),
(96,187,o),
(68,45,cs),
(37,-111,o),
(-31,-206,o),
(-62,-206,cs),
(-82,-206,o),
(-89,-175,o),
(-78,-132,cs),
(-75,-120,o),
(-79,-112,o),
(-87,-112,cs),
(-116,-112,o),
(-141,-129,o),
(-147,-153,cs),
(-159,-202,o),
(-126,-237,o),
(-67,-237,cs)
);
},
{
closed = 1;
nodes = (
(321,444,l),
(338,499,l),
(147,494,l),
(56,469,l),
(53,459,l)
);
}
);
width = 312;
}
);
metricWidth = l;
unicode = 102;
},
{
glyphname = g;
lastChange = "2025-02-16 16:09:52 +0000";
layers = (
{
anchors = (
{
name = bottom;
pos = (145,0);
},
{
name = center;
pos = (211,218);
},
{
name = ogonek;
pos = (324,10);
},
{
name = top;
pos = (277,435);
},
{
name = topright;
pos = (477,435);
}
);
background = {
shapes = (
{
closed = 0;
nodes = (
(-51,-200,l),
(294,700,l)
);
},
{
closed = 0;
nodes = (
(24,-200,l),
(369,700,l)
);
},
{
closed = 0;
nodes = (
(164,-200,l),
(509,700,l)
);
},
{
closed = 0;
nodes = (
(239,-200,l),
(584,700,l)
);
},
{
closed = 0;
nodes = (
(-156,-200,l),
(189,700,l)
);
},
{
closed = 0;
nodes = (
(-126,-200,l),
(219,700,l)
);
},
{
closed = 0;
nodes = (
(314,-200,l),
(659,700,l)
);
},
{
closed = 0;
nodes = (
(344,-200,l),
(689,700,l)
);
},
{
closed = 1;
nodes = (
(268,163,o),
(348,223,o),
(379,307,cs),
(423,424,o),
(398,507,o),
(319,507,cs),
(230,507,o),
(142,442,o),
(108,351,cs),
(66,241,o),
(99,163,o),
(187,163,cs)
);
},
{
closed = 1;
nodes = (
(155,191,o),
(152,264,o),
(191,367,cs),
(216,432,o),
(264,478,o),
(307,478,cs),
(341,478,o),
(336,401,o),
(294,292,c),
(272,233,o),
(232,191,o),
(198,191,cs)
);
}
);
};
layerId = m003;
shapes = (
{
closed = 1;
nodes = (
(241,-208,o),
(349,-153,o),
(380,-76,cs),
(396,-38,o),
(355,8,o),
(281,35,cs),
(195,66,o),
(140,105,o),
(148,129,cs),
(159,157,o),
(184,179,o),
(208,182,c),
(174,191,l),
(138,175,o),
(104,140,o),
(93,107,cs),
(79,67,o),
(98,28,o),
(140,13,cs),
(250,-26,o),
(321,-72,o),
(312,-98,cs),
(297,-139,o),
(238,-172,o),
(171,-177,cs),
(41,-185,o),
(-29,-135,o),
(2,-57,cs),
(23,-3,o),
(81,44,o),
(144,56,c),
(126,78,l),
(28,56,o),
(-59,-6,o),
(-83,-73,cs),
(-111,-152,o),
(-27,-208,o),
(119,-208,cs)
);
},
{
closed = 1;
nodes = (
(270,163,o),
(345,221,o),
(375,295,cs),
(424,414,o),
(384,508,o),
(285,508,cs),
(219,508,o),
(143,447,o),
(114,370,cs),
(67,255,o),
(108,163,o),
(207,163,cs)
);
},
{
closed = 1;
nodes = (
(160,192,o),
(155,280,o),
(200,390,cs),
(219,440,o),
(254,479,o),
(277,479,cs),
(332,479,o),
(338,389,o),
(290,275,cs),
(271,229,o),
(237,192,o),
(214,192,cs)
);
},
{
closed = 1;
nodes = (
(359,356,o),
(416,445,o),
(447,445,c),
(455,445,o),
(463,440,o),
(470,440,c),
(482,440,o),
(496,456,o),
(503,478,cs),
(509,496,o),
(502,508,o),
(486,508,cs),
(445,508,o),
(368,411,o),
(314,274,c),
(321,231,l)
);
}
);
width = 447;
},
{
associatedMasterId = m003;
background = {
shapes = (
{
closed = 0;
nodes = (
(-67,-200,l),
(278,700,l)
);
},
{
closed = 0;
nodes = (
(8,-200,l),
(353,700,l)
);
},
{
closed = 0;
nodes = (
(148,-200,l),
(493,700,l)
);
},
{
closed = 0;
nodes = (
(223,-200,l),
(568,700,l)
);
},
{
closed = 0;
nodes = (
(-172,-200,l),
(173,700,l)
);
},
{
closed = 0;
nodes = (
(-142,-200,l),
(203,700,l)
);
},
{
closed = 0;
nodes = (
(298,-200,l),
(643,700,l)
);
},
{
closed = 0;
nodes = (
(328,-200,l),
(673,700,l)
);
}
);
};
layerId = "CD19AF2B-D444-4E18-A45E-DA9D7905EDAB";
name = "6. Nov. 24, 23:26";
shapes = (
{
closed = 1;
nodes = (
(199,-248,o),
(311,-189,o),
(339,-100,cs),
(353,-51,o),
(314,-3,o),
(245,16,cs),
(162,38,o),
(104,68,o),
(104,88,cs),
(104,101,o),
(126,128,o),
(157,154,c),
(123,163,l),
(88,130,o),
(60,97,o),
(55,83,cs),
(39,39,o),
(55,0,o),
(93,-11,cs),
(202,-41,o),
(271,-89,o),
(261,-126,cs),
(250,-165,o),
(192,-196,o),
(120,-201,cs),
(-1,-209,o),
(-69,-161,o),
(-44,-85,cs),
(-31,-48,o),
(30,-6,o),
(103,18,c),
(81,45,l),
(-35,9,o),
(-124,-51,o),
(-134,-101,cs),
(-153,-191,o),
(-69,-249,o),
(68,-241,cs)
);
},
{
closed = 1;
nodes = (
(229,132,o),
(298,192,o),
(328,279,cs),
(367,399,o),
(333,482,o),
(244,479,cs),
(166,476,o),
(88,411,o),
(57,323,cs),
(16,206,o),
(58,128,o),
(160,135,cs)
);
},
{
closed = 1;
nodes = (
(125,182,o),
(111,246,o),
(140,339,cs),
(157,394,o),
(188,434,o),
(216,435,cs),
(263,437,o),
(274,366,o),
(243,264,cs),
(228,215,o),
(199,182,o),
(171,184,cs)
);
},
{
closed = 1;
nodes = (
(337,397,o),
(345,432,o),
(367,434,cs),
(384,435,o),
(430,405,o),
(441,389,c),
(470,411,l),
(463,454,o),
(444,484,o),
(424,484,cs),
(378,484,o),
(323,451,o),
(292,404,c),
(310,377,l)
);
}
);
width = 414;
}
);
unicode = 103;
},
{
glyphname = h;
lastChange = "2025-02-16 16:09:58 +0000";
layers = (
{
background = {
shapes = (
{
closed = 0;
nodes = (
(-100,-200,l),
(245,700,l)
);
},
{
closed = 0;
nodes = (
(-25,-200,l),
(320,700,l)
);
},
{
closed = 0;
nodes = (
(115,-200,l),
(460,700,l)
);
},
{
closed = 0;
nodes = (
(190,-200,l),
(535,700,l)
);
},
{
closed = 0;
nodes = (
(-205,-200,l),
(140,700,l)
);
},
{
closed = 0;
nodes = (
(-175,-200,l),
(170,700,l)
);
},
{
closed = 0;
nodes = (
(265,-200,l),
(610,700,l)
);
},
{
closed = 0;
nodes = (
(295,-200,l),
(640,700,l)
);
},
{
closed = 1;
nodes = (
(231,700,l),
(117,700,l),
(109,672,l),
(163,675,o),
(210,659,o),
(222,634,c)
);
},
{
closed = 1;
nodes = (
(21,-3,o),
(60,1,o),
(86,0,c),
(161,255,o),
(198,376,o),
(202,398,cs),
(215,462,o),
(210,508,o),
(178,508,cs),
(137,508,o),
(63,451,o),
(-1,371,c),
(19,352,l),
(58,401,o),
(99,435,o),
(119,435,cs),
(133,435,o),
(135,406,o),
(122,359,cs),
(117,337,o),
(68,182,o),
(-8,-10,c)
);
},
{
closed = 1;
nodes = (
(261,13,l),
(229,13,o),
(217,45,o),
(232,90,cs),
(236,100,o),
(234,107,o),
(227,107,cs),
(203,107,o),
(182,93,o),
(176,72,cs),
(159,25,o),
(188,-8,o),
(245,-8,c)
);
}
);
};
layerId = m003;
shapes = (
{
closed = 1;
nodes = (
(284,-9,o),
(383,84,o),
(435,242,cs),
(481,386,o),
(442,508,o),
(377,508,cs),
(314,508,o),
(211,399,o),
(132,246,c),
(156,228,l),
(211,349,o),
(279,434,o),
(318,434,cs),
(375,434,o),
(393,336,o),
(346,197,cs),
(317,110,o),
(274,25,o),
(258,25,cs),
(240,25,o),
(228,50,o),
(244,99,cs),
(247,107,o),
(246,118,o),
(239,118,cs),
(215,118,o),
(191,103,o),
(182,79,cs),
(164,27,o),
(176,-9,o),
(218,-9,cs)
);
},
{
closed = 1;
nodes = (
(23,-4,o),
(55,0,o),
(86,0,c),
(124,136,o),
(231,462,o),
(276,597,cs),
(286,628,o),
(309,686,o),
(330,738,c),
(288,720,o),
(198,707,o),
(113,707,c),
(108,677,l),
(176,681,o),
(218,668,o),
(210,645,c),
(207,625,o),
(200,596,o),
(193,574,cs),
(107,305,o),
(68,182,o),
(-8,-10,c)
);
}
);
width = 474;
}
);
metricLeft = l;
metricRight = o;
unicode = 104;
},
{
color = 4;
glyphname = i;
lastChange = "2025-02-16 16:10:12 +0000";
layers = (
{
background = {
shapes = (
{
closed = 1;
nodes = (
(228,766,o),
(228,745,qs),
(228,722,o),
(256,699,o),
(272,699,qs),
(300,699,o),
(329,743,o),
(329,764,qs),
(329,779,o),
(311,810,o),
(286,810,qs),
(256,810,o)
);
},
{
closed = 1;
nodes = (
(95,385,o),
(118,407,o),
(140,427,o),
(159,439,o),
(166,439,qs),
(168,439,o),
(175,437,o),
(175,430,qs),
(175,420,o),
(158,368,o),
(134,296,o),
(103,216,o),
(75,141,o),
(53,81,o),
(49,66,qs),
(44,45,o),
(44,29,qs),
(44,26,o),
(45,14,o),
(51,1,o),
(66,-8,o),
(79,-8,qs),
(105,-8,o),
(156,17,o),
(203,52,o),
(243,93,o),
(258,109,q),
(238,129,l),
(206,95,o),
(153,52,o),
(143,52,qs),
(131,52,o),
(131,65,qs),
(131,73,o),
(152,146,o),
(173,205,qs),
(178,219,o),
(203,285,o),
(231,357,o),
(255,421,o),
(259,433,qs),
(264,446,o),
(269,465,o),
(269,474,qs),
(269,487,o),
(260,500,o),
(249,507,o),
(238,508,o),
(237,508,qs),
(227,508,o),
(198,500,o),
(155,476,o),
(101,432,o),
(65,396,q),
(86,374,l)
);
}
);
};
layerId = m003;
shapes = (
{
closed = 1;
nodes = (
(273,652,o),
(297,671,o),
(304,694,cs),
(313,723,o),
(294,746,o),
(263,746,cs),
(240,746,o),
(217,728,o),
(211,705,cs),
(203,675,o),
(219,652,o),
(248,652,cs)
);
},
{
closed = 1;
nodes = (
(60,103,ls),
(35,38,o),
(40,-8,o),
(72,-8,cs),
(123,-8,o),
(200,40,o),
(258,109,c),
(238,129,l),
(193,84,o),
(154,52,o),
(143,52,cs),
(128,52,o),
(130,84,o),
(147,129,cs),
(255,421,ls),
(280,489,o),
(269,508,o),
(237,508,cs),
(185,508,o),
(118,454,o),
(65,396,c),
(86,374,l),
(118,412,o),
(152,439,o),
(168,439,cs),
(179,439,o),
(172,401,o),
(152,348,cs)
);
}
);
width = 281;
}
);
unicode = 105;
},
{
glyphname = j;
lastChange = "2025-02-16 16:10:21 +0000";
layers = (
{
background = {
shapes = (
{
closed = 0;
nodes = (
(86,132,ls),
(43,-54,o),
(7,-185,o),
(-29,-185,cs),
(-60,-185,o),
(-70,-144,o),
(-53,-86,cs),
(-48,-73,o),
(-52,-63,o),
(-62,-63,cs),
(-96,-63,o),
(-125,-83,o),
(-133,-111,cs),
(-150,-168,o),
(-114,-208,o),
(-46,-208,cs),
(42,-208,o),
(119,-60,o),
(167,149,cs)
);
}
);
};
layerId = m003;
shapes = (
{
closed = 1;
nodes = (
(18,-209,o),
(109,-83,o),
(170,96,cs),
(281,426,ls),
(297,474,o),
(284,508,o),
(249,508,cs),
(176,508,o),
(95,418,o),
(53,290,c),
(83,290,l),
(113,381,o),
(157,446,o),
(189,446,cs),
(200,446,o),
(191,395,o),
(168,323,cs),
(88,82,ls),
(36,-74,o),
(-16,-185,o),
(-38,-185,cs),
(-69,-185,o),
(-79,-144,o),
(-62,-86,cs),
(-58,-73,o),
(-62,-63,o),
(-71,-63,cs),
(-106,-63,o),
(-136,-84,o),
(-143,-114,cs),
(-160,-170,o),
(-122,-209,o),
(-51,-209,cs)
);
},
{
closed = 1;
nodes = (
(283,612,o),
(310,631,o),
(316,659,cs),
(324,687,o),
(306,706,o),
(274,706,cs),
(242,706,o),
(214,687,o),
(206,659,cs),
(200,631,o),
(218,612,o),
(250,612,cs)
);
}
);
width = 273;
},
{
associatedMasterId = m003;
background = {
shapes = (
{
closed = 1;
nodes = (
(-22,-158,o),
(-76,-230,o),
(-122,-230,cs),
(-160,-230,o),
(-169,-180,o),
(-144,-109,cs),
(-138,-93,o),
(-142,-81,o),
(-153,-81,cs),
(-194,-81,o),
(-232,-105,o),
(-244,-139,cs),
(-268,-209,o),
(-226,-258,o),
(-143,-258,cs),
(-43,-258,o),
(53,-169,o),
(89,-43,c),
(7,-57,l)
);
}
);
};
layerId = "F26A99E2-B18E-42DF-831C-82EB1608A556";
name = "7. Nov. 24, 19:28";
shapes = (
{
closed = 1;
nodes = (
(-12,-106,o),
(-57,-181,o),
(-103,-181,cs),
(-141,-181,o),
(-150,-131,o),
(-125,-60,cs),
(-119,-44,o),
(-123,-32,o),
(-134,-32,cs),
(-175,-32,o),
(-213,-56,o),
(-225,-90,cs),
(-249,-160,o),
(-207,-209,o),
(-124,-209,cs),
(-24,-209,o),
(60,-116,o),
(108,6,cs),
(254,381,l),
(277,455,o),
(264,508,o),
(224,508,cs),
(163,508,o),
(85,418,o),
(36,290,c),
(66,290,l),
(101,381,o),
(142,446,o),
(165,446,cs),
(185,446,o),
(180,395,o),
(153,323,cs),
(26,-8,ls)
);
},
{
closed = 1;
nodes = (
(283,612,o),
(311,631,o),
(319,659,cs),
(328,687,o),
(311,706,o),
(279,706,cs),
(247,706,o),
(218,687,o),
(209,659,cs),
(201,631,o),
(218,612,o),
(250,612,cs)
);
}
);
width = 263;
}
);
metricWidth = i;
unicode = 106;
},
{
glyphname = k;
lastChange = "2025-02-16 16:10:25 +0000";
layers = (
{
layerId = m003;
shapes = (
{
closed = 1;
nodes = (
(352,330,ls),
(406,364,o),
(442,418,o),
(440,461,c),
(439,489,o),
(417,508,o),
(386,508,cs),
(319,508,o),
(225,421,o),
(159,298,c),
(161,253,l),
(217,365,o),
(294,444,o),
(347,444,cs),
(359,444,o),
(368,431,o),
(368,413,cs),
(368,390,o),
(344,359,o),
(310,338,cs),
(97,206,l),
(101,173,l)
);
},
{
closed = 1;
nodes = (
(94,0,l),
(307,700,l),
(232,700,l),
(16,0,l)
);
},
{
closed = 1;
nodes = (
(348,-8,o),
(397,29,o),
(430,82,c),
(409,97,l),
(393,76,o),
(376,60,o),
(368,59,cs),
(341,56,o),
(292,160,o),
(273,311,c),
(203,262,l),
(221,104,o),
(276,-8,o),
(312,-8,cs)
);
},
{
closed = 1;
nodes = (
(232,700,l),
(118,700,l),
(110,672,l),
(165,675,o),
(212,659,o),
(223,634,c)
);
}
);
width = 441;
}
);
unicode = 107;
},
{
color = 4;
glyphname = l;
lastChange = "2025-02-16 16:10:39 +0000";
layers = (
{
background = {
shapes = (
{
closed = 1;
nodes = (
(283,723,o),
(206,709,o),
(143,706,q),
(134,678,l),
(173,677,o),
(207,669,o),
(207,647,qs),
(207,639,o),
(202,615,o),
(194,587,o),
(186,559,o),
(182,547,qs),
(60,167,ls),
(54,147,o),
(43,108,o),
(36,80,qs),
(34,72,o),
(27,43,o),
(27,29,qs),
(27,-8,o),
(63,-8,qs),
(67,-8,o),
(115,2,o),
(153,29,qs),
(179,48,o),
(216,83,o),
(234,102,q),
(216,121,l),
(205,110,o),
(180,86,o),
(155,65,o),
(132,51,o),
(123,51,qs),
(117,51,o),
(109,58,o),
(109,69,qs),
(109,92,o),
(155,239,o),
(191,349,qs),
(231,472,o),
(293,655,o),
(323,728,q),
(311,737,l)
);
}
);
};
layerId = m003;
shapes = (
{
closed = 1;
nodes = (
(122,-8,o),
(197,38,o),
(234,102,c),
(216,121,l),
(188,79,o),
(150,50,o),
(124,50,cs),
(108,50,o),
(107,85,o),
(123,135,cs),
(166,271,o),
(228,462,o),
(273,597,cs),
(283,628,o),
(306,686,o),
(327,738,c),
(285,720,o),
(195,707,o),
(110,707,c),
(105,677,l),
(173,681,o),
(215,668,o),
(207,645,c),
(204,625,o),
(197,596,o),
(190,574,cs),
(104,305,o),
(40,106,o),
(37,93,cs),
(23,34,o),
(30,-8,o),
(54,-8,cs)
);
}
);
width = 249;
}
);
metricWidth = i;
unicode = 108;
},
{
color = 4;
glyphname = m;
lastChange = "2025-02-16 16:07:50 +0000";
layers = (
{
background = {
shapes = (
{
closed = 1;
nodes = (
(90,393,o),
(131,427,o),
(140,427,qs),
(145,427,o),
(149,417,o),
(149,411,qs),
(149,396,o),
(134,333,o),
(112,261,o),
(87,187,o),
(77,158,qs),
(20,-1,l),
(22,-7,l),
(35,-4,o),
(53,-2,o),
(68,0,o),
(85,2,o),
(97,4,q),
(103,25,o),
(119,75,o),
(143,135,o),
(179,206,o),
(206,249,qs),
(233,292,o),
(284,358,o),
(328,404,o),
(360,427,o),
(368,427,qs),
(377,427,o),
(377,415,qs),
(377,401,o),
(361,341,o),
(337,262,o),
(307,173,o),
(277,89,o),
(251,21,o),
(244,0,q),
(248,-7,l),
(269,-2,o),
(297,1,o),
(322,4,q),
(326,21,o),
(335,51,o),
(348,86,o),
(369,131,o),
(385,163,qs),
(418,227,o),
(490,328,o),
(554,398,o),
(602,434,o),
(613,434,qs),
(615,434,o),
(623,431,o),
(623,424,qs),
(623,422,o),
(620,405,o),
(609,370,o),
(589,313,o),
(572,272,qs),
(553,227,o),
(528,164,o),
(510,119,o),
(499,86,o),
(495,71,qs),
(493,66,o),
(488,42,o),
(488,30,qs),
(488,6,o),
(514,-10,o),
(526,-10,qs),
(545,-10,o),
(589,15,o),
(632,54,o),
(674,101,o),
(691,122,q),
(671,144,l),
(660,131,o),
(635,101,o),
(609,75,o),
(586,58,o),
(577,58,qs),
(573,58,o),
(569,61,o),
(569,68,qs),
(569,74,o),
(579,104,o),
(592,140,o),
(605,173,o),
(609,182,qs),
(636,250,o),
(673,345,o),
(695,409,o),
(705,453,o),
(705,470,qs),
(705,495,o),
(680,510,o),
(668,510,qs),
(648,510,o),
(580,474,o),
(536,431,qs),
(498,392,o),
(433,303,o),
(401,254,q),
(407,274,o),
(423,322,o),
(438,372,o),
(451,418,o),
(454,436,qs),
(456,444,o),
(458,459,o),
(458,468,qs),
(458,487,o),
(443,509,o),
(426,509,qs),
(417,509,o),
(385,498,o),
(338,467,o),
(279,407,o),
(243,357,qs),
(241,354,o),
(221,326,o),
(197,292,o),
(176,260,o),
(173,254,q),
(185,289,o),
(208,359,o),
(217,396,qs),
(225,428,o),
(230,460,o),
(230,469,qs),
(230,489,o),
(212,509,o),
(197,509,qs),
(177,509,o),
(135,483,o),
(93,442,o),
(54,393,o),
(37,371,q),
(58,350,l)
);
}
);
};
layerId = m003;
shapes = (
{
closed = 1;
nodes = (
(568,-10,o),
(621,36,o),
(691,122,c),
(671,144,l),
(631,94,o),
(591,57,o),
(575,57,cs),
(560,57,o),
(579,108,o),
(610,184,c),
(671,338,l),
(710,437,o),
(723,510,o),
(667,510,cs),
(597,510,o),
(451,372,o),
(366,181,c),
(340,66,l),
(415,251,o),
(555,434,o),
(616,434,cs),
(635,434,o),
(617,388,o),
(587,308,c),
(509,116,l),
(466,7,o),
(496,-10,o),
(529,-10,cs)
);
},
{
closed = 1;
nodes = (
(44,-2,o),
(71,2,o),
(97,4,c),
(181,264,o),
(218,395,o),
(222,413,cs),
(237,479,o),
(232,508,o),
(195,508,cs),
(155,508,o),
(111,466,o),
(37,372,c),
(59,350,l),
(93,399,o),
(126,427,o),
(140,427,cs),
(157,427,o),
(145,368,o),
(130,319,cs),
(65,110,o),
(36,37,o),
(18,-7,c)
);
},
{
closed = 1;
nodes = (
(265,-4,o),
(296,3,o),
(321,3,c),
(333,48,o),
(415,298,o),
(434,359,cs),
(461,446,o),
(469,509,o),
(430,509,cs),
(356,509,o),
(234,376,o),
(142,191,c),
(126,94,l),
(189,257,o),
(330,428,o),
(368,428,cs),
(383,428,o),
(374,375,o),
(342,278,cs),
(301,152,o),
(263,47,o),
(240,-8,c)
);
}
);
width = 710;
}
);
metricLeft = n;
metricRight = n;
unicode = 109;
},
{
color = 4;
glyphname = n;
lastChange = "2025-02-16 16:09:20 +0000";
layers = (
{
background = {
shapes = (
{
closed = 1;
nodes = (
(366,-8,o),
(446,86,o),
(499,218,c),
(469,218,l),
(432,127,o),
(389,62,o),
(365,62,cs),
(346,62,o),
(352,113,o),
(379,185,cs),
(396,230,o),
(423,298,o),
(446,359,cs),
(479,446,o),
(466,508,o),
(414,508,cs),
(356,508,o),
(261,417,o),
(184,288,c),
(184,243,l),
(246,355,o),
(321,434,o),
(366,434,cs),
(384,434,o),
(378,382,o),
(352,308,c),
(288,143,l),
(255,55,o),
(262,-8,o),
(306,-8,cs)
);
},
{
closed = 1;
nodes = (
(94,0,l),
(188,250,o),
(265,448,o),
(234,365,cs),
(265,449,o),
(256,508,o),
(213,508,cs),
(152,508,o),
(74,418,o),
(25,290,c),
(55,290,l),
(90,381,o),
(131,446,o),
(154,446,cs),
(174,446,o),
(169,395,o),
(142,323,cs),
(105,219,o),
(54,85,o),
(19,0,c)
);
}
);
};
layerId = m003;
shapes = (
{
closed = 1;
nodes = (
(44,-2,o),
(71,2,o),
(97,4,c),
(181,264,o),
(218,395,o),
(222,413,cs),
(237,479,o),
(232,508,o),
(195,508,cs),
(155,508,o),
(111,466,o),
(37,372,c),
(59,350,l),
(93,399,o),
(126,427,o),
(140,427,cs),
(157,427,o),
(145,368,o),
(130,319,cs),
(65,110,o),
(36,37,o),
(18,-7,c)
);
},
{
closed = 1;
nodes = (
(335,-10,o),
(388,36,o),
(458,122,c),
(438,144,l),
(398,94,o),
(358,57,o),
(342,57,cs),
(327,57,o),
(346,108,o),
(377,184,c),
(438,338,l),
(477,437,o),
(490,510,o),
(434,510,cs),
(364,510,o),
(218,372,o),
(133,181,c),
(107,66,l),
(182,251,o),
(322,434,o),
(383,434,cs),
(402,434,o),
(384,388,o),
(354,308,c),
(276,116,l),
(233,7,o),
(263,-10,o),
(296,-10,cs)
);
}
);
width = 477;
}
);
unicode = 110;
},
{
color = 4;
glyphname = o;
lastChange = "2025-02-16 16:06:03 +0000";
layers = (
{
anchors = (
{
name = bottom;
pos = (148,0);
},
{
name = center;
pos = (214,218);
},
{
name = ogonek;
pos = (327,10);
},
{
name = top;
pos = (280,435);
},
{
name = topright;
pos = (480,435);
}
);
background = {
shapes = (
{
closed = 1;
nodes = (
(233,417,o),
(320,508,o),
(366,508,cs),
(430,508,o),
(451,446,o),
(418,359,cs),
(395,298,o),
(368,230,o),
(351,185,cs),
(324,113,o),
(318,62,o),
(337,62,cs),
(361,62,o),
(404,127,o),
(441,218,c),
(471,218,l),
(418,86,o),
(338,-8,o),
(278,-8,cs),
(234,-8,o),
(227,55,o),
(260,143,cs),
(297,241,o),
(324,310,o),
(324,308,cs),
(350,382,o),
(350,434,o),
(323,434,cs),
(288,434,o),
(218,355,o),
(156,243,c),
(156,288,l)
);
},
{
closed = 1;
nodes = (
(-9,0,l),
(31,99,o),
(82,232,o),
(114,323,cs),
(141,395,o),
(146,446,o),
(126,446,cs),
(103,446,o),
(62,381,o),
(27,290,c),
(-3,290,l),
(46,418,o),
(124,508,o),
(185,508,cs),
(228,508,o),
(237,449,o),
(206,365,cs),
(237,448,o),
(160,250,o),
(66,0,c)
);
}
);
};
layerId = m003;
shapes = (
{
closed = 1;
nodes = (
(231,-8,o),
(326,74,o),
(370,190,cs),
(441,376,o),
(405,508,o),
(284,508,cs),
(195,508,o),
(99,423,o),
(54,302,cs),
(-14,120,o),
(23,-8,o),
(142,-8,cs)
);
},
{
closed = 1;
nodes = (
(84,20,o),
(79,149,o),
(148,332,cs),
(181,419,o),
(236,480,o),
(274,480,cs),
(343,480,o),
(347,347,o),
(276,160,cs),
(245,78,o),
(191,20,o),
(153,20,cs)
);
}
);
width = 407;
}
);
unicode = 111;
},
{
color = 4;
glyphname = p;
lastChange = "2025-02-16 16:10:48 +0000";
layers = (
{
background = {
shapes = (
{
closed = 1;
nodes = (
(177,481,l),
(79,459,l),
(86,428,l),
(166,446,l),
(26,-9,ls),
(6,-73,o),
(-20,-147,o),
(-44,-189,o),
(-73,-203,o),
(-96,-206,q),
(-106,-241,l),
(-70,-237,o),
(-20,-230,o),
(26,-227,o),
(78,-226,o),
(117,-226,q),
(126,-193,l),
(110,-193,o),
(91,-192,o),
(79,-190,o),
(72,-185,o),
(69,-182,qs),
(61,-173,o),
(61,-158,qs),
(61,-148,o),
(73,-97,o),
(89,-38,o),
(104,16,o),
(108,29,q),
(124,30,o),
(166,37,o),
(215,53,o),
(271,84,o),
(301,109,qs),
(337,138,o),
(396,216,o),
(438,299,o),
(462,379,o),
(462,409,qs),
(462,436,o),
(444,472,o),
(413,494,o),
(372,504,o),
(349,504,qs),
(336,504,o),
(312,503,o),
(300,502,qs),
(288,500,o),
(265,497,o),
(253,495,q),
(278,565,l),
(276,574,l),
(203,565,l)
);
},
{
closed = 1;
nodes = (
(258,463,o),
(302,468,o),
(319,468,qs),
(351,468,o),
(379,441,o),
(379,405,qs),
(379,362,o),
(358,277,o),
(325,203,o),
(286,145,o),
(269,128,qs),
(249,110,o),
(208,89,o),
(169,80,o),
(135,80,o),
(123,80,q),
(241,460,l)
);
}
);
};
layerId = m003;
shapes = (
{
closed = 1;
nodes = (
(-27,-223,o),
(91,-223,o),
(174,-232,c),
(183,-190,l),
(171,-191,o),
(147,-192,o),
(124,-192,c),
(92,-192,o),
(75,-170,o),
(82,-140,c),
(252,568,l),
(177,562,l),
(2,-166,l),
(-1,-181,o),
(-15,-192,o),
(-31,-192,c),
(-52,-193,o),
(-81,-193,o),
(-102,-192,c),
(-110,-232,l)
);
},
{
closed = 1;
nodes = (
(294,43,o),
(380,127,o),
(433,277,cs),
(481,411,o),
(438,506,o),
(328,506,cs),
(202,506,o),
(75,431,o),
(21,325,c),
(38,292,l),
(85,385,o),
(187,451,o),
(285,451,cs),
(365,451,o),
(391,365,o),
(347,243,cs),
(311,141,o),
(252,85,o),
(181,85,cs),
(163,85,o),
(136,99,o),
(117,118,c),
(108,66,l),
(127,53,o),
(161,43,o),
(192,43,cs)
);
}
);
width = 462;
},
{
associatedMasterId = m003;
background = {
shapes = (
{
closed = 0;
nodes = (
(-67,-200,l),
(278,700,l)
);
},
{
closed = 0;
nodes = (
(8,-200,l),
(353,700,l)
);
},
{
closed = 0;
nodes = (
(148,-200,l),
(493,700,l)
);
},
{
closed = 0;
nodes = (
(223,-200,l),
(568,700,l)
);
},
{
closed = 0;
nodes = (
(-172,-200,l),
(173,700,l)
);
},
{
closed = 0;
nodes = (
(-142,-200,l),
(203,700,l)
);
},
{
closed = 0;
nodes = (
(298,-200,l),
(643,700,l)
);
},
{
closed = 0;
nodes = (
(328,-200,l),
(673,700,l)
);
}
);
};
layerId = "029680C6-E5C4-473E-9EF7-0B855439BBB5";
name = "6. Nov. 24, 23:23";
shapes = (
{
closed = 1;
nodes = (
(249,-51,o),
(409,59,o),
(470,275,cs),
(504,396,o),
(462,506,o),
(347,506,cs),
(261,506,o),
(134,431,o),
(40,325,c),
(57,299,l),
(143,391,o),
(245,456,o),
(304,456,cs),
(382,456,o),
(401,364,o),
(371,255,cs),
(323,81,o),
(208,-13,o),
(136,41,c),
(127,8,l)
);
},
{
closed = 1;
nodes = (
(200,-200,l),
(209,-172,l),
(95,-172,l),
(278,568,l),
(207,562,l),
(16,-172,l),
(-81,-172,l),
(-89,-200,l)
);
}
);
width = 502;
}
);
unicode = 112;
},
{
color = 4;
glyphname = q;
lastChange = "2025-02-16 16:10:59 +0000";
layers = (
{
layerId = m003;
shapes = (
{
closed = 1;
nodes = (
(139,-10,o),
(258,94,o),
(339,240,c),
(339,293,l),
(266,161,o),
(169,59,o),
(122,59,cs),
(94,59,o),
(99,119,o),
(132,211,cs),
(181,342,o),
(260,432,o),
(327,432,cs),
(343,432,o),
(371,413,o),
(391,397,c),
(427,452,l),
(407,464,o),
(378,466,o),
(359,466,cs),
(238,466,o),
(105,346,o),
(42,176,cs),
(3,67,o),
(12,-10,o),
(69,-10,cs)
);
},
{
closed = 1;
nodes = (
(177,-223,o),
(295,-223,o),
(378,-232,c),
(387,-190,l),
(375,-191,o),
(351,-192,o),
(328,-192,c),
(296,-192,o),
(279,-170,o),
(286,-140,c),
(434,477,l),
(359,471,l),
(206,-166,l),
(203,-181,o),
(189,-192,o),
(173,-192,c),
(152,-193,o),
(123,-193,o),
(102,-192,c),
(94,-232,l)
);
}
);
width = 435;
},
{
associatedMasterId = m003;
background = {
shapes = (
{
closed = 0;
nodes = (
(188,-146,l),
(185,-161,o),
(171,-172,o),
(155,-172,c),
(84,-172,l),
(76,-200,l),
(365,-200,l),
(374,-172,l),
(315,-172,l),
(283,-172,o),
(266,-150,o),
(273,-120,c)
);
}
);
};
layerId = "00B6DBDF-8A79-4760-8C61-E953A7B5EE51";
name = "7. Nov. 24, 00:08";
shapes = (
{
closed = 1;
nodes = (
(368,-200,l),
(377,-172,l),
(363,-172,o),
(351,-172,o),
(334,-172,cs),
(290,-172,o),
(268,-143,o),
(281,-101,c),
(433,396,l),
(441,420,o),
(451,447,o),
(457,459,c),
(443,488,o),
(418,508,o),
(395,508,cs),
(258,508,o),
(100,370,o),
(29,175,cs),
(-10,68,o),
(9,-8,o),
(76,-8,cs),
(137,-8,o),
(244,23,o),
(310,106,c),
(312,139,l),
(264,69,o),
(192,62,o),
(163,62,cs),
(93,62,o),
(65,125,o),
(95,213,cs),
(141,345,o),
(230,439,o),
(309,439,cs),
(347,439,o),
(365,414,o),
(354,379,c),
(196,-142,l),
(191,-160,o),
(165,-172,o),
(134,-172,cs),
(84,-172,l),
(76,-200,l)
);
}
);
width = 431;
}
);
metricWidth = o;
unicode = 113;
},
{
color = 4;
glyphname = r;
lastChange = "2025-02-16 16:11:07 +0000";
layers = (
{
associatedMasterId = m003;
layerId = "D557A137-27E6-4560-890F-F4309894473F";
name = "6. Nov. 24, 23:41";
shapes = (
{
closed = 1;
nodes = (
(97,0,l),
(191,250,o),
(263,448,o),
(232,365,cs),
(263,449,o),
(260,508,o),
(216,508,cs),
(157,508,o),
(79,418,o),
(28,290,c),
(58,290,l),
(94,381,o),
(135,446,o),
(157,446,cs),
(177,446,o),
(173,395,o),
(146,323,cs),
(108,221,o),
(56,87,o),
(22,0,c)
);
},
{
closed = 1;
nodes = (
(195,313,o),
(311,474,o),
(333,474,c),
(347,474,o),
(353,456,o),
(353,424,c),
(353,384,o),
(335,365,o),
(335,343,c),
(335,332,o),
(344,329,o),
(348,329,c),
(380,329,o),
(445,349,o),
(445,418,c),
(445,474,o),
(398,508,o),
(337,508,cs),
(300,508,o),
(191,380,o),
(107,198,c),
(110,160,l)
);
}
);
width = 373;
},
{
background = {
shapes = (
{
closed = 1;
nodes = (
(74,361,o),
(99,388,o),
(126,415,o),
(153,434,o),
(163,434,qs),
(174,434,o),
(178,420,o),
(178,415,qs),
(178,398,o),
(161,331,o),
(133,246,o),
(101,153,o),
(71,72,o),
(47,10,o),
(42,-2,q),
(47,-8,l),
(62,-5,o),
(82,-1,o),
(100,0,o),
(119,1,o),
(134,2,q),
(140,25,o),
(160,94,o),
(186,174,o),
(223,258,o),
(247,298,qs),
(251,306,o),
(274,341,o),
(304,377,o),
(338,405,o),
(352,405,qs),
(358,405,o),
(378,397,o),
(382,396,q),
(388,396,ls),
(398,396,o),
(419,413,o),
(435,439,o),
(445,467,o),
(445,478,qs),
(445,489,o),
(436,500,o),
(425,505,o),
(415,507,o),
(414,507,qs),
(408,507,o),
(385,500,o),
(353,480,o),
(311,441,o),
(287,410,qs),
(285,407,o),
(272,388,o),
(256,366,o),
(242,344,o),
(238,338,q),
(243,360,o),
(252,414,o),
(254,424,qs),
(255,433,o),
(256,448,o),
(256,457,qs),
(256,463,o),
(255,481,o),
(248,496,o),
(233,508,o),
(219,508,qs),
(212,508,o),
(178,496,o),
(145,471,qs),
(115,448,o),
(74,404,o),
(45,372,q),
(67,353,l)
);
}
);
};
layerId = m003;
name = "Groote Garmont Cursyf";
shapes = (
{
closed = 1;
nodes = (
(68,-3,o),
(107,1,o),
(133,0,c),
(208,255,o),
(245,376,o),
(249,398,cs),
(262,462,o),
(257,508,o),
(225,508,cs),
(184,508,o),
(110,451,o),
(46,371,c),
(66,352,l),
(105,401,o),
(146,435,o),
(166,435,cs),
(180,435,o),
(182,406,o),
(169,359,cs),
(164,337,o),
(115,182,o),
(39,-10,c)
);
},
{
closed = 1;
nodes = (
(207,260,o),
(300,405,o),
(350,405,c),
(364,405,o),
(377,396,o),
(388,396,c),
(407,396,o),
(430,422,o),
(442,458,cs),
(452,487,o),
(440,507,o),
(414,507,cs),
(347,507,o),
(221,349,o),
(133,126,c),
(145,56,l)
);
}
);
width = 389;
}
);
metricWidth = c;
unicode = 114;
},
{
glyphname = s;
lastChange = "2025-02-16 16:11:10 +0000";
layers = (
{
background = {
shapes = (
{
closed = 1;
nodes = (
(184,-8,o),
(282,86,o),
(333,220,cs),
(397,389,o),
(357,508,o),
(237,508,cs),
(148,508,o),
(48,410,o),
(-4,272,cs),
(-65,108,o),
(-24,-8,o),
(95,-8,cs)
);
},
{
closed = 1;
nodes = (
(37,20,o),
(33,137,o),
(95,302,cs),
(134,406,o),
(189,480,o),
(227,480,cs),
(295,480,o),
(298,360,o),
(234,190,cs),
(196,90,o),
(143,20,o),
(106,20,cs)
);
}
);
};
layerId = m003;
shapes = (
{
closed = 1;
nodes = (
(213,51,o),
(176,20,o),
(139,20,cs),
(96,20,o),
(80,63,o),
(101,124,cs),
(106,137,o),
(103,147,o),
(94,147,cs),
(62,147,o),
(34,128,o),
(25,100,cs),
(3,37,o),
(41,-8,o),
(118,-8,cs),
(202,-8,o),
(281,48,o),
(310,128,cs),
(353,247,o),
(129,281,o),
(183,422,cs),
(195,455,o),
(225,479,o),
(254,479,cs),
(299,479,o),
(315,433,o),
(292,367,cs),
(287,354,o),
(290,344,o),
(299,344,cs),
(331,344,o),
(359,363,o),
(368,391,cs),
(392,459,o),
(353,507,o),
(275,507,cs),
(197,507,o),
(127,467,o),
(106,410,cs),
(42,239,o),
(276,226,o),
(229,95,cs)
);
}
);
width = 385;
},
{
associatedMasterId = m003;
background = {
shapes = (
{
closed = 1;
nodes = (
(169,397,l),
(183,445,o),
(210,479,o),
(234,479,cs),
(272,479,o),
(281,429,o),
(256,358,cs),
(250,342,o),
(254,330,o),
(265,330,cs),
(306,330,o),
(344,354,o),
(356,388,cs),
(380,458,o),
(338,507,o),
(255,507,cs),
(177,507,o),
(108,456,o),
(87,383,c)
);
},
{
closed = 1;
nodes = (
(168,104,l),
(148,55,o),
(111,20,o),
(79,20,cs),
(41,20,o),
(32,70,o),
(57,141,cs),
(63,157,o),
(59,169,o),
(48,169,cs),
(7,169,o),
(-31,145,o),
(-43,111,cs),
(-67,41,o),
(-25,-8,o),
(58,-8,cs),
(134,-8,o),
(215,52,o),
(254,137,c)
);
}
);
};
layerId = "EBFBC35F-32CC-450C-9ABA-983167BABF9D";
name = "6. Nov. 24, 21:45";
shapes = (
{
closed = 1;
nodes = (
(-34,45,o),
(-5,-3,o),
(56,-3,cs),
(143,-3,o),
(227,51,o),
(250,128,cs),
(307,313,o),
(134,281,o),
(172,407,cs),
(185,448,o),
(211,477,o),
(235,477,cs),
(266,477,o),
(280,452,o),
(269,416,cs),
(265,404,o),
(271,396,o),
(282,396,cs),
(315,396,o),
(342,408,o),
(347,424,cs),
(362,473,o),
(325,507,o),
(259,507,cs),
(179,507,o),
(114,462,o),
(91,386,cs),
(35,202,o),
(205,224,o),
(169,107,cs),
(156,65,o),
(111,27,o),
(79,27,cs),
(51,27,o),
(44,64,o),
(59,116,cs),
(63,128,o),
(57,137,o),
(45,137,cs),
(15,137,o),
(-9,127,o),
(-13,113,cs)
);
}
);
width = 334;
}
);
metricWidth = c;
unicode = 115;
},
{
glyphname = t;
lastChange = "2025-02-16 16:11:21 +0000";
layers = (
{
layerId = m003;
shapes = (
{
closed = 1;
nodes = (
(139,-9,o),
(210,45,o),
(271,122,c),
(251,141,l),
(212,93,o),
(172,59,o),
(155,59,cs),
(138,59,o),
(141,114,o),
(161,191,cs),
(199,342,o),
(248,515,o),
(279,607,c),
(184,598,l),
(142,437,o),
(96,253,o),
(72,153,cs),
(49,58,o),
(60,-9,o),
(98,-9,cs)
);
},
{
closed = 1;
nodes = (
(331,444,l),
(348,499,l),
(157,494,l),
(66,469,l),
(63,459,l)
);
}
);
width = 297;
}
);
metricWidth = i;
unicode = 116;
},
{
color = 4;
glyphname = u;
lastChange = "2025-02-16 16:11:27 +0000";
layers = (
{
anchors = (
{
name = bottom;
pos = (180,0);
},
{
name = ogonek;
pos = (397,10);
},
{
name = top;
pos = (312,435);
},
{
name = topright;
pos = (560,435);
}
);
background = {
shapes = (
{
closed = 1;
nodes = (
(61,-2,o),
(88,2,o),
(114,4,c),
(198,264,o),
(235,395,o),
(239,413,cs),
(254,479,o),
(249,508,o),
(212,508,cs),
(172,508,o),
(128,466,o),
(54,372,c),
(76,350,l),
(110,399,o),
(143,427,o),
(157,427,cs),
(174,427,o),
(162,368,o),
(147,319,cs),
(82,110,o),
(53,37,o),
(35,-7,c)
);
},
{
closed = 1;
nodes = (
(352,-10,o),
(405,36,o),
(475,122,c),
(455,144,l),
(415,94,o),
(375,57,o),
(359,57,cs),
(344,57,o),
(363,108,o),
(394,184,c),
(455,338,l),
(494,437,o),
(507,510,o),
(451,510,cs),
(381,510,o),
(235,372,o),
(150,181,c),
(124,66,l),
(199,251,o),
(339,434,o),
(400,434,cs),
(419,434,o),
(401,388,o),
(371,308,c),
(293,116,l),
(250,7,o),
(280,-10,o),
(313,-10,cs)
);
}
);
};
layerId = m003;
shapes = (
{
closed = 1;
nodes = (
(492,506,o),
(458,501,o),
(417,496,c),
(332,238,o),
(279,85,o),
(273,43,cs),
(267,3,o),
(284,-10,o),
(317,-10,cs),
(348,-10,o),
(416,45,o),
(474,122,c),
(454,144,l),
(416,92,o),
(374,56,o),
(358,56,cs),
(348,56,o),
(361,120,o),
(388,193,cs),
(467,408,o),
(509,532,o),
(498,507,c)
);
},
{
closed = 1;
nodes = (
(172,510,o),
(109,453,o),
(53,372,c),
(75,350,l),
(109,399,o),
(152,446,o),
(171,446,cs),
(184,446,o),
(170,389,o),
(141,320,c),
(76,162,l),
(36,61,o),
(42,-10,o),
(90,-10,cs),
(175,-10,o),
(295,126,o),
(381,319,c),
(407,434,l),
(320,218,o),
(210,66,o),
(153,66,cs),
(125,66,o),
(138,120,o),
(164,194,cs),
(193,275,o),
(233,355,o),
(250,437,cs),
(262,495,o),
(243,510,o),
(207,510,cs)
);
}
);
width = 482;
},
{
associatedMasterId = m003;
layerId = "ABB09411-EC44-4418-BAB9-7685FF2C341E";
name = "6. Nov. 24, 23:15";
shapes = (
{
closed = 1;
nodes = (
(418,509,l),
(324,259,o),
(246,61,o),
(277,144,c),
(244,56,o),
(247,-7,o),
(284,-7,cs),
(348,-7,o),
(432,87,o),
(485,219,c),
(455,219,l),
(424,141,o),
(381,86,o),
(352,86,cs),
(340,86,o),
(347,127,o),
(369,186,cs),
(395,258,o),
(447,391,o),
(493,509,c)
);
},
{
closed = 1;
nodes = (
(159,517,o),
(75,423,o),
(22,291,c),
(52,291,l),
(83,369,o),
(126,424,o),
(155,424,cs),
(167,424,o),
(163,383,o),
(138,324,c),
(63,150,l),
(24,60,o),
(42,-7,o),
(94,-7,cs),
(151,-7,o),
(247,87,o),
(327,221,c),
(327,264,l),
(268,159,o),
(177,77,o),
(138,77,cs),
(114,77,o),
(131,134,o),
(160,201,c),
(230,366,l),
(267,453,o),
(260,517,o),
(223,517,cs)
);
}
);
width = 495;
}
);
metricLeft = n;
metricRight = n;
metricWidth = n;
unicode = 117;
},
{
glyphname = v;
lastChange = "2025-02-16 16:11:30 +0000";
layers = (
{
layerId = m003;
shapes = (
{
closed = 1;
nodes = (
(235,-8,o),
(338,106,o),
(397,268,cs),
(448,408,o),
(433,507,o),
(360,507,cs),
(335,507,o),
(311,488,o),
(301,460,cs),
(292,436,o),
(297,419,o),
(313,419,cs),
(369,419,o),
(378,335,o),
(335,216,cs),
(302,123,o),
(242,57,o),
(191,57,cs),
(136,57,o),
(126,139,o),
(167,256,cs),
(206,365,o),
(229,341,o),
(252,413,c),
(265,469,o),
(245,508,o),
(205,508,cs),
(175,508,o),
(110,452,o),
(47,372,c),
(69,350,l),
(100,395,o),
(134,427,o),
(150,427,cs),
(175,427,o),
(179,382,o),
(160,319,cs),
(150,286,o),
(90,216,o),
(76,176,cs),
(38,68,o),
(68,-8,o),
(148,-8,cs)
);
}
);
width = 413;
}
);
metricWidth = o;
unicode = 118;
},
{
glyphname = w;
lastChange = "2025-02-16 16:11:33 +0000";
layers = (
{
background = {
shapes = (
{
closed = 1;
nodes = (
(425,-7,o),
(524,107,o),
(574,268,cs),
(616,408,o),
(602,507,o),
(540,507,cs),
(511,507,o),
(484,485,o),
(475,455,cs),
(466,428,o),
(471,409,o),
(488,409,cs),
(540,409,o),
(553,329,o),
(519,216,cs),
(492,129,o),
(434,67,o),
(380,67,cs),
(364,67,o),
(343,78,o),
(330,93,c),
(351,115,o),
(378,170,o),
(394,224,cs),
(416,295,o),
(405,345,o),
(366,345,cs),
(309,345,o),
(250,275,o),
(223,176,cs),
(215,145,o),
(215,103,o),
(225,74,c),
(214,70,o),
(195,67,o),
(180,67,cs),
(125,67,o),
(110,145,o),
(145,256,cs),
(179,367,o),
(231,424,o),
(245,469,cs),
(252,491,o),
(234,507,o),
(201,507,cs),
(127,507,o),
(54,463,o),
(25,400,cs),
(-8,331,l),
(33,338,l),
(55,384,ls),
(63,401,o),
(88,413,o),
(115,413,cs),
(143,413,o),
(156,390,o),
(146,357,cs),
(136,324,o),
(66,216,o),
(53,176,cs),
(21,69,o),
(55,-7,o),
(135,-7,cs),
(166,-7,o),
(212,10,o),
(244,35,c),
(264,10,o),
(301,-7,o),
(335,-7,cs)
);
},
{
closed = 1;
nodes = (
(288,149,o),
(285,207,o),
(305,266,cs),
(314,288,o),
(331,304,o),
(346,304,cs),
(371,304,o),
(373,259,o),
(350,196,cs),
(341,169,o),
(325,140,o),
(312,127,c)
);
}
);
};
layerId = m003;
shapes = (
{
closed = 1;
nodes = (
(442,-8,o),
(545,106,o),
(604,268,cs),
(655,408,o),
(640,507,o),
(567,507,cs),
(542,507,o),
(518,488,o),
(508,460,cs),
(499,436,o),
(504,419,o),
(520,419,cs),
(579,419,o),
(590,335,o),
(547,216,cs),
(514,123,o),
(452,57,o),
(398,57,cs),
(375,57,o),
(348,70,o),
(332,89,c),
(355,127,o),
(394,191,o),
(419,263,cs),
(452,356,o),
(464,454,o),
(416,454,cs),
(365,454,o),
(300,356,o),
(260,218,cs),
(245,168,o),
(240,104,o),
(247,64,c),
(234,60,o),
(217,57,o),
(207,57,cs),
(147,57,o),
(133,139,o),
(174,256,cs),
(213,365,o),
(244,372,o),
(267,444,cs),
(278,481,o),
(254,507,o),
(210,507,cs),
(146,507,o),
(68,417,o),
(22,290,c),
(52,290,l),
(85,381,o),
(126,446,o),
(151,446,cs),
(189,446,o),
(205,409,o),
(189,357,cs),
(179,324,o),
(96,216,o),
(82,176,cs),
(44,68,o),
(78,-8,o),
(164,-8,cs),
(194,-8,o),
(236,7,o),
(267,29,c),
(286,7,o),
(322,-8,o),
(355,-8,cs)
);
},
{
closed = 1;
nodes = (
(305,179,o),
(312,259,o),
(335,328,cs),
(349,368,o),
(373,397,o),
(392,397,cs),
(415,397,o),
(413,346,o),
(388,273,cs),
(379,241,o),
(350,183,o),
(317,134,c)
);
}
);
width = 630;
},
{
associatedMasterId = m003;
layerId = "5A38C2F5-2BB2-4579-8BD4-F84C47CF3AA8";
name = "6. Nov. 24, 23:46";
shapes = (
{
closed = 1;
nodes = (
(433,-7,o),
(532,107,o),
(582,268,cs),
(624,408,o),
(610,507,o),
(548,507,cs),
(519,507,o),
(492,485,o),
(483,455,cs),
(474,428,o),
(479,409,o),
(496,409,cs),
(548,409,o),
(561,329,o),
(527,216,cs),
(500,129,o),
(442,67,o),
(388,67,cs),
(372,67,o),
(351,78,o),
(338,93,c),
(359,115,o),
(386,170,o),
(402,224,cs),
(424,295,o),
(413,345,o),
(374,345,cs),
(317,345,o),
(258,275,o),
(231,176,cs),
(223,145,o),
(223,103,o),
(233,74,c),
(222,70,o),
(203,67,o),
(188,67,cs),
(133,67,o),
(118,145,o),
(153,256,cs),
(187,367,o),
(239,424,o),
(253,469,cs),
(260,491,o),
(242,507,o),
(209,507,cs),
(135,507,o),
(62,463,o),
(33,400,cs),
(0,331,l),
(41,338,l),
(63,384,ls),
(71,401,o),
(96,413,o),
(123,413,cs),
(151,413,o),
(164,390,o),
(154,357,cs),
(144,324,o),
(74,216,o),
(61,176,cs),
(29,69,o),
(63,-7,o),
(143,-7,cs),
(174,-7,o),
(220,10,o),
(252,35,c),
(272,10,o),
(309,-7,o),
(343,-7,cs)
);
},
{
closed = 1;
nodes = (
(296,149,o),
(293,207,o),
(313,266,cs),
(322,288,o),
(339,304,o),
(354,304,cs),
(379,304,o),
(381,259,o),
(358,196,cs),
(349,169,o),
(333,140,o),
(320,127,c)
);
}
);
width = 630;
}
);
unicode = 119;
},
{
glyphname = x;
lastChange = "2025-02-16 16:11:36 +0000";
layers = (
{
layerId = m003;
shapes = (
{
closed = 1;
nodes = (
(108,-3,o),
(414,419,o),
(457,419,cs),
(488,419,o),
(511,404,o),
(514,383,c),
(566,452,l),
(551,485,o),
(530,508,o),
(514,508,cs),
(454,508,o),
(120,91,o),
(93,91,cs),
(76,91,o),
(59,108,o),
(51,132,c),
(-13,77,l),
(-2,30,o),
(14,-3,o),
(26,-3,cs)
);
},
{
closed = 1;
nodes = (
(339,-3,o),
(392,30,o),
(431,77,c),
(409,92,l),
(387,68,o),
(359,51,o),
(342,51,cs),
(315,51,o),
(308,508,o),
(248,508,cs),
(211,508,o),
(146,472,o),
(93,422,c),
(95,393,l),
(119,426,o),
(158,449,o),
(190,449,cs),
(233,449,o),
(222,-3,o),
(304,-3,cs)
);
}
);
width = 514;
}
);
unicode = 120;
},
{
glyphname = y;
lastChange = "2025-02-16 16:11:41 +0000";
layers = (
{
background = {
shapes = (
{
closed = 0;
nodes = (
(121,132,ls),
(78,-54,o),
(42,-185,o),
(6,-185,cs),
(-25,-185,o),
(-35,-144,o),
(-18,-86,cs),
(-13,-73,o),
(-17,-63,o),
(-27,-63,cs),
(-61,-63,o),
(-90,-83,o),
(-98,-111,cs),
(-115,-168,o),
(-79,-208,o),
(-11,-208,cs),
(77,-208,o),
(154,-60,o),
(202,149,cs)
);
}
);
};
layerId = m003;
shapes = (
{
closed = 1;
nodes = (
(50,-209,o),
(110,-89,o),
(225,80,cs),
(302,193,o),
(412,320,o),
(455,461,cs),
(463,487,o),
(440,508,o),
(403,508,cs),
(370,508,o),
(344,484,o),
(344,453,cs),
(344,448,o),
(349,435,o),
(352,429,cs),
(380,369,o),
(294,233,o),
(195,90,cs),
(83,-71,o),
(22,-185,o),
(-3,-185,cs),
(-27,-185,o),
(-48,-147,o),
(-30,-97,cs),
(-22,-75,o),
(-26,-63,o),
(-36,-63,cs),
(-68,-63,o),
(-97,-83,o),
(-107,-111,cs),
(-126,-168,o),
(-86,-209,o),
(-16,-209,cs)
);
},
{
closed = 1;
nodes = (
(93,315,l),
(112,375,o),
(148,434,o),
(175,434,c),
(210,434,o),
(202,236,o),
(166,37,c),
(229,95,l),
(279,330,o),
(290,508,o),
(200,508,cs),
(151,508,o),
(91,429,o),
(56,315,cs)
);
}
);
width = 421;
}
);
metricWidth = c;
unicode = 121;
},
{
glyphname = z;
lastChange = "2025-02-16 16:11:45 +0000";
layers = (
{
background = {
shapes = (
{
closed = 1;
nodes = (
(117,29,ls),
(109,29,o),
(110,40,o),
(119,54,c),
(224,187,o),
(291,328,o),
(403,459,c),
(414,505,l),
(132,500,l),
(54,332,l),
(76,323,l),
(116,407,o),
(162,465,o),
(187,466,cs),
(300,471,ls),
(309,471,o),
(309,462,o),
(299,450,c),
(-25,-5,l)
);
},
{
closed = 1;
nodes = (
(308,0,l),
(379,164,l),
(357,172,l),
(329,92,o),
(278,35,o),
(236,34,cs),
(11,29,l),
(-25,-5,l)
);
}
);
};
layerId = m003;
shapes = (
{
closed = 1;
nodes = (
(417,493,l),
(395,509,l),
(-31,2,l),
(-7,-14,l)
);
},
{
closed = 1;
nodes = (
(17,3,o),
(50,19,o),
(81,19,cs),
(99,19,o),
(152,-14,o),
(193,-14,cs),
(243,-14,o),
(298,24,o),
(325,77,cs),
(367,163,l),
(348,172,l),
(317,117,l),
(301,88,o),
(254,68,o),
(223,68,cs),
(197,68,o),
(144,101,o),
(110,101,cs),
(60,101,o),
(1,50,o),
(-31,2,c),
(0,-20,l)
);
},
{
closed = 1;
nodes = (
(93,378,l),
(108,407,o),
(149,427,o),
(178,427,cs),
(202,427,o),
(252,394,o),
(284,394,cs),
(332,394,o),
(377,435,o),
(417,493,c),
(388,515,l),
(372,492,o),
(341,476,o),
(312,476,cs),
(295,476,o),
(245,509,o),
(206,509,cs),
(159,509,o),
(107,471,o),
(82,418,cs),
(42,332,l),
(64,323,l)
);
}
);
width = 381;
}
);
unicode = 122;
},
{
glyphname = period;
lastChange = "2025-02-16 16:06:32 +0000";
layers = (
{
layerId = m003;
shapes = (
{
closed = 1;
nodes = (
(96,-4,o),
(122,28,o),
(122,67,cs),
(122,106,o),
(96,138,o),
(64,138,cs),
(32,138,o),
(6,106,o),
(6,67,cs),
(6,28,o),
(32,-4,o),
(64,-4,cs)
);
}
);
width = 220;
}
);
unicode = 46;
},
{
glyphname = comma;
lastChange = "2025-02-16 16:06:32 +0000";
layers = (
{
layerId = m003;
shapes = (
{
closed = 1;
nodes = (
(65,-152,o),
(132,-70,o),
(146,-11,cs),
(167,83,o),
(139,149,o),
(75,149,cs),
(41,149,o),
(11,127,o),
(4,95,cs),
(-4,57,o),
(10,30,o),
(38,30,cs),
(82,30,o),
(105,-7,o),
(93,-59,cs),
(86,-88,o),
(37,-142,o),
(-25,-187,c),
(-15,-208,l)
);
}
);
width = 264;
}
);
unicode = 44;
},
{
glyphname = colon;
lastChange = "2025-02-16 16:06:32 +0000";
layers = (
{
layerId = m003;
shapes = (
{
closed = 1;
nodes = (
(187,340,o),
(227,357,o),
(240,387,cs),
(253,415,o),
(233,445,o),
(197,453,cs),
(161,461,o),
(121,444,o),
(109,415,cs),
(96,386,o),
(115,356,o),
(152,348,c)
);
},
{
closed = 1;
nodes = (
(99,0,o),
(139,17,o),
(152,47,cs),
(164,75,o),
(144,105,o),
(109,113,cs),
(73,121,o),
(33,104,o),
(20,75,cs),
(7,46,o),
(26,16,o),
(64,8,c)
);
}
);
width = 252;
}
);
unicode = 58;
},
{
glyphname = semicolon;
lastChange = "2025-02-16 16:06:32 +0000";
layers = (
{
layerId = m003;
shapes = (
{
closed = 1;
nodes = (
(55,-103,o),
(127,-45,o),
(158,7,cs),
(206,90,o),
(204,162,o),
(152,183,cs),
(124,193,o),
(94,181,o),
(77,152,cs),
(57,119,o),
(60,89,o),
(84,80,cs),
(119,66,o),
(135,23,o),
(108,-23,cs),
(92,-49,o),
(34,-85,o),
(-31,-109,c),
(-30,-132,l)
);
},
{
closed = 1;
nodes = (
(187,340,o),
(227,357,o),
(240,387,cs),
(253,415,o),
(233,445,o),
(197,453,cs),
(161,461,o),
(121,444,o),
(109,415,cs),
(96,386,o),
(115,356,o),
(152,348,c)
);
}
);
width = 279;
}
);
unicode = 59;
},
{
glyphname = hyphen;
lastChange = "2024-11-11 18:59:14 +0000";
layers = (
{
layerId = m003;
shapes = (
{
closed = 1;
nodes = (
(314,223,l),
(341,285,l),
(77,285,l),
(50,223,l)
);
}
);
width = 378;
}
);
unicode = 45;
},
